<?xml version="1.0" encoding="UTF-8"?>
<svg version="1.1" xmlns="http://www.w3.org/2000/svg" width="777" height="253">
<path d="M0 0 C4.81585835 2.45514347 7.2512324 4.85656587 9 10 C9 14.05382653 8.32847414 15.59853161 5.75 18.75 C1.96539477 21.84649519 -0.25473112 23.17110479 -5.1875 22.6875 C-8 22 -8 22 -10 21 C-14.60278136 20.61643489 -17.0647397 20.55035562 -21.25 22.5625 C-25.50273666 26.33197113 -27.6732414 30.06877288 -28.609375 35.6015625 C-28.67716326 36.94181403 -28.72263791 38.28331422 -28.75 39.625 C-28.77819824 40.37426758 -28.80639648 41.12353516 -28.83544922 41.89550781 C-28.9213784 44.59720656 -28.96529103 47.29715052 -29 50 C-29.01514648 51.13598633 -29.03029297 52.27197266 -29.04589844 53.44238281 C-29.08679286 57.21165176 -29.11051136 60.98053931 -29.125 64.75 C-29.12983398 65.94447754 -29.13466797 67.13895508 -29.13964844 68.36962891 C-29.10509075 86.32728359 -28.99516196 101.94761093 -16.375 115.78125 C-4.19934589 127.25446253 12.46286027 127.58089283 28.18359375 127.30859375 C40.9579723 126.81577716 51.5246219 122.14450587 60.3125 112.6875 C71.39266896 98.53125014 70.34980628 81.6675918 70.31567383 64.57861328 C70.31249379 61.24348845 70.33611107 57.90923575 70.36132812 54.57421875 C70.36359983 52.4296886 70.36430521 50.2851561 70.36328125 48.140625 C70.37709587 46.66375214 70.37709587 46.66375214 70.39118958 45.15704346 C70.34178451 37.71409295 69.43094432 31.10620663 64.75 25.125 C61.53091425 22.63752465 58.91596471 21.14778276 55 20 C51.51190809 20.77030122 51.51190809 20.77030122 48 22 C44.54086538 22.55184638 41.33184821 22.77547006 38.1953125 20.94921875 C36.01232059 19.17880187 34.26522185 17.53044369 33 15 C32.42461375 7.98028769 32.42461375 7.98028769 34.6875 4.125 C37.68036249 1.37480204 39.80108029 0.07597893 43.921875 -0.06640625 C47.8695615 0.17846904 49.40939401 0.40341824 52.31640625 3.33984375 C55.32991766 6.32703628 58.09597072 7.73147838 61.9375 9.5 C69.4407184 12.96176779 74.70919572 16.38547019 78.3125 24 C78.80363281 25.010625 79.29476562 26.02125 79.80078125 27.0625 C81.61641241 31.50990923 82.1256287 35.51749301 82.09765625 40.30078125 C82.09443359 41.27724609 82.09121094 42.25371094 82.08789062 43.25976562 C82.07951172 44.26716797 82.07113281 45.27457031 82.0625 46.3125 C82.05798828 47.33923828 82.05347656 48.36597656 82.04882812 49.42382812 C82.03708184 51.94927882 82.02065565 54.47460905 82 57 C82.66 57.33 83.32 57.66 84 58 C83.34 58 82.68 58 82 58 C82.02094727 58.94617188 82.04189453 59.89234375 82.06347656 60.8671875 C82.13722406 64.46045091 82.18227544 68.0536516 82.21972656 71.64746094 C82.23954171 73.18728977 82.2666021 74.72704658 82.30175781 76.26660156 C82.71581346 94.89910562 79.40779429 109.960527 66.5625 124.1875 C56.86953338 133.43853805 42.58807336 139.76888244 29.13671875 140.0625 C28.43160156 140.041875 27.72648437 140.02125 27 140 C26.84144531 140.70125 26.68289062 141.4025 26.51953125 142.125 C24.93050206 148.58646677 22.82010799 153.57394789 19 159 C19.8196524 158.92894547 20.63930481 158.85789093 21.48379517 158.78468323 C30.82147761 158.03877175 40.09764099 157.86801557 49.4609375 157.90234375 C50.98792473 157.90421487 52.51491258 157.90563548 54.04190063 157.90663147 C58.01031224 157.91040213 61.97868571 157.92018403 65.94708252 157.93133545 C70.01679977 157.94166858 74.08652334 157.94615427 78.15625 157.95117188 C86.10418393 157.96181271 94.05208719 157.97882132 102 158 C102.04639844 147.29905761 102.08190737 136.59813927 102.10362434 125.89711666 C102.11404888 120.92787554 102.12818382 115.95870339 102.15087891 110.98950195 C102.17265467 106.19141019 102.18457863 101.39338465 102.18975449 96.59524727 C102.19344174 94.76727824 102.20064201 92.93931273 102.21146011 91.11137199 C102.22603794 88.54544191 102.22797532 85.97978338 102.22705078 83.41381836 C102.23783661 82.28740181 102.23783661 82.28740181 102.24884033 81.13822937 C102.23043305 76.39805105 101.61343798 72.47437841 100 68 C96.00840658 64.3712787 91.16667918 64.32643507 86 64 C86.66 63.67 87.32 63.34 88 63 C87.814375 61.906875 87.62875 60.81375 87.4375 59.6875 C87 56 87 56 88 53 C102.17975173 53.42076415 102.17975173 53.42076415 107 58 C110.75759781 62.51941216 113.11667512 66.23270107 113.14044189 72.25517273 C113.14615204 73.12280746 113.15186218 73.9904422 113.15774536 74.8843689 C113.15942215 76.30805283 113.15942215 76.30805283 113.16113281 77.76049805 C113.16609772 78.76245712 113.17106262 79.7644162 113.17617798 80.79673767 C113.1908071 84.11840498 113.19760367 87.44002449 113.203125 90.76171875 C113.20887682 93.06997173 113.21463455 95.37822471 113.22039795 97.68647766 C113.23091075 102.53114037 113.23675127 107.37578647 113.24023438 112.22045898 C113.24571284 118.41994806 113.26972603 124.61921682 113.29820633 130.81863689 C113.31685842 135.58938735 113.32203974 140.36008508 113.32357025 145.13086891 C113.32659262 147.41575128 113.33460706 149.70063282 113.34775543 151.98547935 C113.36486565 155.18799805 113.36292306 158.38998307 113.35644531 161.5925293 C113.3656601 162.53153076 113.37487488 163.47053223 113.3843689 164.43798828 C113.32922542 173.16855706 111.26783584 179.58640053 105 186 C95.71603921 193.77261834 82.32181921 192.40300108 70.875 192.625 C69.23435609 192.66326008 67.59373054 192.70231621 65.953125 192.7421875 C61.96890232 192.8373032 57.98458611 192.92164603 54 193 C54.28875 193.84304687 54.5775 194.68609375 54.875 195.5546875 C55.24625 196.65039062 55.6175 197.74609375 56 198.875 C56.37125 199.96554688 56.7425 201.05609375 57.125 202.1796875 C58 205 58 205 58 207 C59.2375 206.938125 60.475 206.87625 61.75 206.8125 C64.55633773 206.82245155 65.91693253 206.96054295 68.5 208.1875 C70 210 70 210 70.375 212.5625 C70 215 70 215 68 217 C64.98669994 217.18838354 62.06594957 217.25164443 59.05224609 217.22705078 C58.12536484 217.22734283 57.19848358 217.22763489 56.24351501 217.22793579 C53.17006166 217.22653889 50.09684867 217.21096075 47.0234375 217.1953125 C44.89637382 217.19158365 42.76930844 217.18873608 40.64224243 217.18673706 C35.03620688 217.17909052 29.4302745 217.15943327 23.82427979 217.1373291 C18.10682572 217.11689264 12.38935504 217.10774006 6.671875 217.09765625 C-4.55212873 217.07618834 -15.7760558 217.0420401 -27 217 C-27.33 216.01 -27.66 215.02 -28 214 C-28.66 213.67 -29.32 213.34 -30 213 C-26.89762523 208.28439035 -24.3914444 207.32242976 -19 206 C-18.67 205.34 -18.34 204.68 -18 204 C-17.34 204.33 -16.68 204.66 -16 205 C-15.86722656 204.38511719 -15.73445313 203.77023438 -15.59765625 203.13671875 C-15.42105469 202.32847656 -15.24445313 201.52023438 -15.0625 200.6875 C-14.88847656 199.88699219 -14.71445313 199.08648437 -14.53515625 198.26171875 C-14 196 -14 196 -13 193 C-14.06847168 192.98541748 -15.13694336 192.97083496 -16.23779297 192.95581055 C-20.24511289 192.89733925 -24.25189922 192.82011459 -28.25878906 192.73754883 C-29.9849372 192.70452714 -31.71118741 192.67642625 -33.4375 192.65356445 C-57.36238578 192.32819708 -57.36238578 192.32819708 -65.59765625 184.48046875 C-71.50775699 178.24111448 -71.25026999 172.40299444 -71.55078125 164.125 C-71.59262039 162.99368652 -71.63445953 161.86237305 -71.67756653 160.69677734 C-72.17261893 145.79221942 -72.18722686 130.88300767 -72.18530273 115.97167969 C-72.18519966 111.78751966 -72.19905242 107.60352381 -72.21607494 103.41940308 C-72.22722734 100.14554083 -72.22922124 96.87171865 -72.22869301 93.59783936 C-72.22986047 92.0542543 -72.23421144 90.51066777 -72.24202538 88.96710205 C-72.34497331 66.61396797 -72.34497331 66.61396797 -66 59 C-61.27079324 54.73217926 -58.10443175 53.86984482 -51.8125 53.9375 C-50.18248047 53.95103516 -50.18248047 53.95103516 -48.51953125 53.96484375 C-47.68808594 53.97644531 -46.85664062 53.98804688 -46 54 C-46 57.3 -46 60.6 -46 64 C-48.50651042 64.45572917 -51.01302083 64.91145833 -53.51953125 65.3671875 C-56.22727846 65.91188449 -56.22727846 65.91188449 -59 68 C-60.19591786 71.58775357 -60.16323208 74.86963135 -60.17700195 78.60498047 C-60.18685875 79.76401886 -60.18685875 79.76401886 -60.19691467 80.94647217 C-60.21662486 83.50337828 -60.228304 86.06022577 -60.23828125 88.6171875 C-60.24235678 89.49080051 -60.2464323 90.36441353 -60.25063133 91.26449966 C-60.27148046 95.88677992 -60.28578825 100.50903057 -60.29516602 105.13134766 C-60.30623948 109.90533004 -60.34065328 114.67884748 -60.38033772 119.45266533 C-60.40647639 123.12440866 -60.4148553 126.79604061 -60.41844749 130.4678688 C-60.4233191 132.22773511 -60.43494943 133.98759625 -60.45348549 135.74737167 C-60.47782334 138.21070059 -60.47692236 140.67281824 -60.4699707 143.13623047 C-60.48918579 144.22428482 -60.48918579 144.22428482 -60.50878906 145.33432007 C-60.4724641 148.8689308 -60.07385162 150.88081953 -58.19656372 153.91035461 C-52.84651082 158.99999223 -44.77931235 158.28592232 -37.83984375 158.23046875 C-36.89113907 158.23001053 -35.94243439 158.22955231 -34.96498108 158.2290802 C-32.97070048 158.22607505 -30.97642186 158.21824128 -28.98217773 158.20581055 C-25.94311129 158.18753375 -22.90435013 158.18530137 -19.86523438 158.18554688 C-17.91926822 158.18063128 -15.97330411 158.17480278 -14.02734375 158.16796875 C-13.12612289 158.16685593 -12.22490204 158.1657431 -11.29637146 158.16459656 C-2.99439566 158.10261706 2.90317895 158.00147267 9.19921875 152.12109375 C12.03202802 148.78440084 13.58378846 145.10887691 15 141 C13.98421875 140.84144531 12.9684375 140.68289062 11.921875 140.51953125 C-5.56430805 137.62542826 -20.73175228 131.28631453 -31.69140625 116.7578125 C-42.3445664 100.4710263 -41.18690414 80.83764479 -41.18530273 62.17651367 C-41.18750423 59.30698117 -41.20577476 56.43782508 -41.22460938 53.56835938 C-41.3082853 27.24165987 -41.3082853 27.24165987 -33 17 C-30.67241357 14.9495976 -28.31415685 13.12985025 -25.7578125 11.375 C-25.17773438 10.92125 -24.59765625 10.4675 -24 10 C-24 9.34 -24 8.68 -24 8 C-23.41992188 7.99742188 -22.83984375 7.99484375 -22.2421875 7.9921875 C-17.66588594 7.76563792 -14.856254 7.41076811 -11.625 4 C-10.325625 2.515 -10.325625 2.515 -9 1 C-5.64870516 -0.11709828 -3.51689744 -0.34479387 0 0 Z " fill="#30505E" transform="translate(85,23)"/>
<path d="M0 0 C6.49196796 -0.10217095 12.98372542 -0.17178598 19.47631836 -0.21972656 C21.68082426 -0.23973086 23.88527786 -0.26694322 26.08959961 -0.30175781 C29.27470883 -0.35077058 32.45911116 -0.37308127 35.64453125 -0.390625 C36.61582474 -0.41127014 37.58711823 -0.43191528 38.58784485 -0.45318604 C47.49789326 -0.45604936 55.74205691 1.95437517 63.125 7.0625 C64.21167969 7.79146484 64.21167969 7.79146484 65.3203125 8.53515625 C67 10 67 10 68 13 C68.66 13 69.32 13 70 13 C71.62109375 15.2734375 71.62109375 15.2734375 73.4375 18.375 C74.03433594 19.37273437 74.63117188 20.37046875 75.24609375 21.3984375 C79.24397148 29.04861557 80.53771455 36.75767734 80.4375 45.3125 C80.42992676 46.22676758 80.42235352 47.14103516 80.41455078 48.08300781 C80.11671365 60.39215983 76.73465144 70.97193014 68.1171875 79.96484375 C49.88111743 96.87790481 28.20217047 91 3 91 C3 61.63 3 32.26 3 2 C2.01 1.67 1.02 1.34 0 1 C0 0.67 0 0.34 0 0 Z M19 15 C18.97462009 22.72297462 18.95712049 30.44593847 18.94506836 38.16894531 C18.94004333 40.79557701 18.93322226 43.42220591 18.92456055 46.04882812 C18.91241493 49.82682993 18.90675333 53.60479471 18.90234375 57.3828125 C18.89718246 58.55490265 18.89202118 59.7269928 18.88670349 60.93460083 C18.88662796 62.035289 18.88655243 63.13597717 18.88647461 64.27001953 C18.884254 65.23376495 18.88203339 66.19751038 18.87974548 67.19046021 C19.00830034 70.1939231 19.44907999 73.04717242 20 76 C23.31232698 76.08834684 26.62434435 76.14083584 29.9375 76.1875 C30.86369141 76.21263672 31.78988281 76.23777344 32.74414062 76.26367188 C40.45967243 76.344888 47.37295395 75.3348615 53.5625 70.4375 C54.366875 69.633125 55.17125 68.82875 56 68 C56 67.34 56 66.68 56 66 C56.66 66 57.32 66 58 66 C63.27677205 54.68561899 64.16497196 44.15601172 61 32 C58.1556721 25.22673667 52.96985018 20.08417135 46.5 16.6875 C40.22264506 14.96122739 34.01485962 14.8699088 27.5625 14.9375 C26.32209961 14.94426758 26.32209961 14.94426758 25.05664062 14.95117188 C23.03772854 14.96284189 21.01885426 14.98077282 19 15 Z " fill="#2E4E5C" transform="translate(478,77)"/>
<path d="M0 0 C11.11926307 -0.4412406 21.13487181 2.88469438 30.3984375 8.83984375 C36.57961435 14.85835805 39.96578058 21.76418136 41.7734375 30.15234375 C41.7734375 30.81234375 41.7734375 31.47234375 41.7734375 32.15234375 C35.73789202 32.84494733 29.84937312 33.26486108 23.7734375 33.15234375 C23.3815625 31.93546875 22.9896875 30.71859375 22.5859375 29.46484375 C20.53649855 24.06957656 17.64677396 21.2388789 12.6484375 18.33984375 C5.90601718 15.80960793 -1.01720333 16.24500894 -7.5390625 19.15234375 C-13.51470625 22.51542465 -17.02654664 26.86873872 -19.3671875 33.2734375 C-20.42244471 38.03648483 -20.51941693 42.47943762 -20.4765625 47.33984375 C-20.48429687 48.22865234 -20.49203125 49.11746094 -20.5 50.03320312 C-20.49613281 51.32000977 -20.49613281 51.32000977 -20.4921875 52.6328125 C-20.48993164 53.40520264 -20.48767578 54.17759277 -20.48535156 54.97338867 C-20.19477458 57.419992 -19.4121072 59.00965432 -18.2265625 61.15234375 C-17.9790625 61.91546875 -17.7315625 62.67859375 -17.4765625 63.46484375 C-14.79223506 69.23614774 -11.28341124 73.01572813 -5.4140625 75.58984375 C1.37062858 77.9360468 6.88471174 78.147524 13.5859375 75.46484375 C19.80197197 72.38385275 21.67788861 68.34344154 24.7734375 62.15234375 C30.0534375 62.15234375 35.3334375 62.15234375 40.7734375 62.15234375 C42.35386703 66.89363234 40.67107599 70.65278856 38.7734375 75.15234375 C33.4376963 83.96546774 25.80920552 90.50030619 15.7734375 93.15234375 C2.8243206 95.66090391 -9.73006418 94.45652745 -21.1015625 87.40234375 C-28.00603395 82.36017928 -33.10100296 76.11094443 -36.2265625 68.15234375 C-36.525625 67.42273438 -36.8246875 66.693125 -37.1328125 65.94140625 C-41.13315608 54.19965704 -41.23303827 38.30577187 -36.55078125 26.7890625 C-30.15085972 14.04585591 -22.80300764 6.03904614 -9.2265625 1.15234375 C-6.08474846 0.43578967 -3.19702384 0.21874374 0 0 Z " fill="#30515F" transform="translate(252.2265625,75.84765625)"/>
<path d="M0 0 C3.97915159 -0.02886984 7.95827653 -0.04675406 11.9375 -0.0625 C13.07380859 -0.07087891 14.21011719 -0.07925781 15.38085938 -0.08789062 C16.46044922 -0.09111328 17.54003906 -0.09433594 18.65234375 -0.09765625 C20.15269165 -0.10551147 20.15269165 -0.10551147 21.68334961 -0.11352539 C24 0 24 0 25 1 C25.08713831 2.70772358 25.10700007 4.41898649 25.09765625 6.12890625 C25.09443359 7.16337891 25.09121094 8.19785156 25.08789062 9.26367188 C25.07532227 10.8965918 25.07532227 10.8965918 25.0625 12.5625 C25.05798828 13.65498047 25.05347656 14.74746094 25.04882812 15.87304688 C25.03699826 18.58208495 25.02051543 21.29101599 25 24 C25.57105469 23.91621094 26.14210937 23.83242187 26.73046875 23.74609375 C33.93934032 22.84068699 40.78761279 23.26519566 48 24 C48.02886338 28.47915328 48.04675187 32.95828291 48.0625 37.4375 C48.07087891 38.71689453 48.07925781 39.99628906 48.08789062 41.31445312 C48.09111328 42.52939453 48.09433594 43.74433594 48.09765625 44.99609375 C48.10289307 46.12200928 48.10812988 47.2479248 48.11352539 48.40795898 C48 51 48 51 47 52 C44.47403741 52.23653523 41.96892793 52.42173692 39.4375 52.5625 C38.72658203 52.60568359 38.01566406 52.64886719 37.28320312 52.69335938 C35.52238088 52.79971777 33.7612168 52.90038846 32 53 C32 53.33 32 53.66 32 54 C29.69 54 27.38 54 25 54 C25.02618408 54.59014893 25.05236816 55.18029785 25.0793457 55.78833008 C25.18329224 58.46278245 25.2483128 61.13681065 25.3125 63.8125 C25.35439453 64.74126953 25.39628906 65.67003906 25.43945312 66.62695312 C25.48547099 69.17634288 25.47697505 71.49429874 25 74 C22.60546875 76.19921875 22.60546875 76.19921875 20 77 C19.01 76.505 19.01 76.505 18 76 C14.38132441 74.7937748 11.07493749 74.89183082 7.3125 74.9375 C6.61060547 74.94201172 5.90871094 74.94652344 5.18554688 74.95117188 C3.45699462 74.96293073 1.72848635 74.98086546 0 75 C-3.26893421 69.23737289 -2.1528278 63.08559209 -1.48828125 56.6953125 C-1.39716064 55.81117676 -1.30604004 54.92704102 -1.2121582 54.01611328 C-1.142146 53.3507959 -1.07213379 52.68547852 -1 52 C-1.69150146 52.00523682 -2.38300293 52.01047363 -3.09545898 52.01586914 C-6.20946352 52.036575 -9.32345361 52.04963963 -12.4375 52.0625 C-13.52611328 52.07087891 -14.61472656 52.07925781 -15.73632812 52.08789062 C-16.77080078 52.09111328 -17.80527344 52.09433594 -18.87109375 52.09765625 C-19.82943115 52.10289307 -20.78776855 52.10812988 -21.77514648 52.11352539 C-24 52 -24 52 -25 51 C-25.09971786 49.08541718 -25.13080589 47.16717683 -25.1328125 45.25 C-25.13410156 44.0846875 -25.13539062 42.919375 -25.13671875 41.71875 C-25.13285156 40.4915625 -25.12898438 39.264375 -25.125 38 C-25.12886719 36.7728125 -25.13273437 35.545625 -25.13671875 34.28125 C-25.13542969 33.1159375 -25.13414063 31.950625 -25.1328125 30.75 C-25.13168457 29.67234375 -25.13055664 28.5946875 -25.12939453 27.484375 C-25 25 -25 25 -24 24 C-21.05876995 23.78759422 -18.13266597 23.62319052 -15.1875 23.5 C-13.55582834 23.43078533 -11.92430392 23.35798758 -10.29296875 23.28125 C-9.5661792 23.25095703 -8.83938965 23.22066406 -8.09057617 23.18945312 C-5.97318592 22.99757004 -4.04525093 22.56977525 -2 22 C-2.02320312 20.83082031 -2.04640625 19.66164063 -2.0703125 18.45703125 C-2.08907821 16.90886058 -2.10727755 15.36068297 -2.125 13.8125 C-2.14175781 13.04357422 -2.15851563 12.27464844 -2.17578125 11.48242188 C-2.18222656 10.73154297 -2.18867187 9.98066406 -2.1953125 9.20703125 C-2.20578613 8.5210083 -2.21625977 7.83498535 -2.22705078 7.12817383 C-1.94751366 4.50803936 -1.05966037 2.39981907 0 0 Z " fill="#80B4B8" transform="translate(93,56)"/>
<path d="M0 0 C0.33 0 0.66 0 1 0 C1.08152344 2.54232342 1.14073716 5.08199202 1.1875 7.625 C1.21263672 8.33785156 1.23777344 9.05070313 1.26367188 9.78515625 C1.33010442 14.61258782 0.63903477 17.80380965 -2 22 C-6.43938397 26.00627334 -8.86321202 27.12278133 -14.77409363 27.16062927 C-16.61836441 27.17569771 -16.61836441 27.17569771 -18.49989319 27.19107056 C-19.86996399 27.19710094 -21.24003543 27.20298591 -22.61010742 27.20874023 C-24.04730458 27.21827697 -25.48449943 27.22816805 -26.92169189 27.23838806 C-31.64958972 27.26979866 -36.37750526 27.29004492 -41.10546875 27.30859375 C-41.90980166 27.31189107 -42.71413456 27.31518839 -43.5428412 27.31858563 C-51.12882384 27.3493712 -58.71481043 27.37607923 -66.30083752 27.39300442 C-76.00360172 27.4149057 -85.70581214 27.4568599 -95.40835494 27.52644199 C-102.23052579 27.57370491 -109.05254737 27.59794113 -115.8748768 27.6052013 C-119.9492584 27.61015486 -124.02301615 27.62520586 -128.09721947 27.6649456 C-131.9330313 27.70186591 -135.76786445 27.71020479 -139.6038208 27.69693947 C-141.00868461 27.69699333 -142.41359235 27.70725576 -143.81829262 27.7286911 C-155.73503758 27.90075736 -155.73503758 27.90075736 -160.3285675 24.14393616 C-162.85743015 21.58358812 -163.93881886 19.41695523 -164.09765625 15.73828125 C-164.08605469 14.93777344 -164.07445312 14.13726562 -164.0625 13.3125 C-164.05347656 12.50425781 -164.04445312 11.69601563 -164.03515625 10.86328125 C-164.02355469 10.24839844 -164.01195312 9.63351563 -164 9 C-162.95126709 9.48605713 -161.90253418 9.97211426 -160.82202148 10.47290039 C-154.93670573 12.66527941 -149.05841625 12.44879824 -142.84765625 12.43359375 C-141.59295029 12.4388356 -140.33824432 12.44407745 -139.04551697 12.44947815 C-136.40022048 12.45588273 -133.75579276 12.45603459 -131.1105957 12.44604492 C-127.74382394 12.43456048 -124.37810195 12.45477787 -121.01146793 12.48396206 C-117.76936014 12.50686427 -114.52732586 12.49985121 -111.28515625 12.49609375 C-109.48945946 12.51294472 -109.48945946 12.51294472 -107.65748596 12.53013611 C-99.13251002 12.45965738 -92.58161042 11.41535998 -86.26597595 5.3928833 C-82.71083546 2.38410205 -79.20802993 2.32496541 -74.69970703 2.43237305 C-73.88928452 2.43164291 -73.078862 2.43091278 -72.24388123 2.43016052 C-69.58116311 2.43362734 -66.92022269 2.47244335 -64.2578125 2.51171875 C-62.40551713 2.52105015 -60.55320937 2.52816472 -58.70089722 2.53315735 C-53.8377037 2.55220145 -48.97526289 2.60127981 -44.11236572 2.65667725 C-39.14532655 2.70792568 -34.17816514 2.73068332 -29.2109375 2.75585938 C-19.47362855 2.80940116 -9.73687699 2.89468251 0 3 C0 2.01 0 1.02 0 0 Z " fill="#9BA7AD" transform="translate(187,178)"/>
<path d="M0 0 C4.82709853 3.50285026 7.39745262 7.85815423 9.1875 13.5 C10.13392135 19.5997214 10.32053987 25.52239607 10.28515625 31.6875 C10.2837413 32.63061035 10.28232635 33.5737207 10.28086853 34.54541016 C10.2753124 37.53030697 10.26276823 40.51512621 10.25 43.5 C10.24497932 45.53515516 10.24041741 47.57031151 10.23632812 49.60546875 C10.22535737 54.57034197 10.20812339 59.53515787 10.1875 64.5 C4.9075 64.5 -0.3725 64.5 -5.8125 64.5 C-6.1425 62.85 -6.4725 61.2 -6.8125 59.5 C-7.451875 60.098125 -8.09125 60.69625 -8.75 61.3125 C-15.70217681 66.27834058 -23.39008566 67.5661284 -31.8125 66.5 C-38.61413589 64.70042066 -44.153889 62.06655536 -47.80859375 55.7890625 C-50.41628685 50.11008641 -50.36621162 44.49662856 -48.8125 38.5 C-46.19790884 33.09951688 -42.49214197 29.59948623 -37 27.23828125 C-30.01649463 24.88134819 -22.89512543 24.22503157 -15.57421875 23.74609375 C-12.9245332 23.50998316 -10.40823011 23.07210081 -7.8125 22.5 C-8.05914429 17.2065038 -8.05914429 17.2065038 -10.1875 12.5625 C-14.06022441 10.03033404 -18.34517828 9.99590533 -22.8125 10.5 C-25.77605946 11.70711321 -25.77605946 11.70711321 -27.8125 13.5 C-27.8125 14.16 -27.8125 14.82 -27.8125 15.5 C-28.4725 15.5 -29.1325 15.5 -29.8125 15.5 C-29.8125 16.82 -29.8125 18.14 -29.8125 19.5 C-33.48237221 20.72329074 -36.15217822 20.38021006 -40 20.0625 C-41.27230469 19.96066406 -42.54460937 19.85882813 -43.85546875 19.75390625 C-44.83128906 19.67011719 -45.80710937 19.58632812 -46.8125 19.5 C-46.46242049 11.62321102 -44.47321029 6.94559707 -38.8125 1.3125 C-28.5856872 -7.06688855 -10.99947385 -6.46812914 0 0 Z M-8.8125 34.5 C-7.8225 35.985 -7.8225 35.985 -6.8125 37.5 C-6.8125 36.51 -6.8125 35.52 -6.8125 34.5 C-7.4725 34.5 -8.1325 34.5 -8.8125 34.5 Z M-29.8125 38.5 C-32.27061625 42.18717438 -32.12368164 44.14345704 -31.8125 48.5 C-30.09023504 51.74849977 -30.09023504 51.74849977 -26.8125 52.5 C-20.6699933 53.00142912 -14.93727391 53.34358043 -9.8125 49.5 C-7.36812899 45.75196445 -6.41858482 42.96437201 -6.8125 38.5 C-7.4725 38.17 -8.1325 37.84 -8.8125 37.5 C-8.8125 36.84 -8.8125 36.18 -8.8125 35.5 C-16.09320423 35.16737899 -23.2330766 34.91524689 -29.8125 38.5 Z " fill="#30505E" transform="translate(459.8125,103.5)"/>
<path d="M0 0 C7.98924593 5.99193445 11.24699226 13.95522125 12.7578125 23.5078125 C13.28034048 27.20069106 13.72554887 30.89908305 14.140625 34.60546875 C11.20505207 35.44994398 8.60617211 35.72756298 5.55566406 35.71899414 C4.65503235 35.71891861 3.75440063 35.71884308 2.82647705 35.71876526 C1.86280212 35.71360397 0.8991272 35.70844269 -0.09375 35.703125 C-1.08691223 35.70171005 -2.08007446 35.7002951 -3.10333252 35.69883728 C-6.27204412 35.69324463 -9.44068479 35.68069345 -12.609375 35.66796875 C-14.75911356 35.6629528 -16.90885323 35.65839006 -19.05859375 35.65429688 C-24.32554499 35.64327761 -29.59245493 35.62654675 -34.859375 35.60546875 C-34.25775392 37.22214898 -33.64490817 38.83465516 -33.02734375 40.4453125 C-32.51723755 41.79290649 -32.51723755 41.79290649 -31.99682617 43.16772461 C-30.30654064 46.79028331 -28.49694283 48.02690158 -24.859375 49.60546875 C-19.1522935 51.13453587 -14.28727173 50.72632182 -8.7578125 48.70703125 C-6.51061519 47.62708869 -6.51061519 47.62708869 -5.171875 44.41796875 C-2.859375 41.60546875 -2.859375 41.60546875 0.48828125 41.21875 C4.05670633 41.22946599 7.58194766 41.34855889 11.140625 41.60546875 C12.35513451 45.24899728 11.88452547 45.92290469 10.265625 49.29296875 C6.45790883 56.4678389 1.14064505 61.93042185 -6.671875 64.54296875 C-12.31407298 65.92908353 -18.0707373 66.31703148 -23.859375 66.60546875 C-23.859375 65.94546875 -23.859375 65.28546875 -23.859375 64.60546875 C-24.99375 64.56421875 -26.128125 64.52296875 -27.296875 64.48046875 C-35.34955141 63.44187268 -41.42240558 57.74776499 -46.421875 51.68359375 C-52.33613871 43.13362557 -52.73138954 32.24182466 -51.5859375 22.2109375 C-50.06092388 13.99600566 -46.15235803 7.1118289 -39.859375 1.60546875 C-39.158125 0.90421875 -38.456875 0.20296875 -37.734375 -0.51953125 C-26.33150673 -7.95618447 -11.37739014 -6.78267489 0 0 Z M-32.234375 15.54296875 C-34.24997151 18.76377301 -34.24997151 18.76377301 -33.859375 23.60546875 C-24.289375 23.60546875 -14.719375 23.60546875 -4.859375 23.60546875 C-3.6917412 20.10256736 -4.25946429 18.61184093 -5.76953125 15.3203125 C-8.13443632 11.59918947 -11.81048543 9.95509861 -15.859375 8.60546875 C-23.44276426 7.98387947 -27.28207567 9.41775642 -32.234375 15.54296875 Z " fill="#2E4F5C" transform="translate(615.859375,104.39453125)"/>
<path d="M0 0 C5.28 0 10.56 0 16 0 C16.33 15.84 16.66 31.68 17 48 C17.66 48 18.32 48 19 48 C19.38091797 47.12601563 19.38091797 47.12601563 19.76953125 46.234375 C21.13320333 43.75811967 22.64225203 42.19479374 24.6875 40.25 C28.07025849 36.95916429 31.20940897 33.55466684 34.26171875 29.95703125 C35.12216797 28.98830078 35.12216797 28.98830078 36 28 C36.7115625 27.0925 37.423125 26.185 38.15625 25.25 C42.14583257 22.0934072 44.93766831 22.61951877 49.8125 23.1875 C50.60076172 23.25775391 51.38902344 23.32800781 52.20117188 23.40039062 C54.13644004 23.57632409 56.06868873 23.78493667 58 24 C56.66000502 27.006818 55.20154709 28.99762609 52.8125 31.25 C49.57843829 34.38993101 46.57715635 37.65635784 43.6484375 41.08203125 C42.59417167 42.30867704 41.51767643 43.51677525 40.4140625 44.69921875 C38.8238795 46.38589056 38.8238795 46.38589056 37 49 C37.37354229 51.98420454 38.55304303 54.19535202 40.1171875 56.73046875 C40.55434082 57.44323975 40.99149414 58.15601074 41.44189453 58.89038086 C41.91481934 59.64843018 42.38774414 60.40647949 42.875 61.1875 C43.35952637 61.97326416 43.84405273 62.75902832 44.34326172 63.56860352 C48.31466675 69.97848961 52.39837 76.31503982 56.55810547 82.60424805 C58.38176011 85.38073368 59.94447335 87.83342006 61 91 C58.08344849 91.30305731 55.17156149 91.56828972 52.25 91.8125 C51.425 91.90208984 50.6 91.99167969 49.75 92.08398438 C43.65349509 92.55105532 43.65349509 92.55105532 40.83203125 90.171875 C40.22746094 89.12515625 39.62289062 88.0784375 39 87 C37.95864067 85.3518466 36.91548165 83.7048297 35.87109375 82.05859375 C34.72325664 80.1869192 33.57881471 78.31315893 32.4375 76.4375 C31.29213121 74.56011898 30.1450575 72.6837768 28.99609375 70.80859375 C28.24090454 69.56807251 28.24090454 69.56807251 27.47045898 68.30249023 C26.0652221 66.10212679 24.68701958 63.99411501 23 62 C22.34 62 21.68 62 21 62 C20.566875 62.928125 20.566875 62.928125 20.125 63.875 C19 66 19 66 17 68 C16.62904292 70.42246595 16.62904292 70.42246595 16.5859375 73.2265625 C16.54726563 74.2578125 16.50859375 75.2890625 16.46875 76.3515625 C16.4378125 77.43179688 16.406875 78.51203125 16.375 79.625 C16.33632813 80.71296875 16.29765625 81.8009375 16.2578125 82.921875 C16.16333753 85.61441165 16.07777569 88.30693757 16 91 C12.99686252 92.50156874 10.20932478 92.09281204 6.875 92.0625 C4.95300781 92.04896484 4.95300781 92.04896484 2.9921875 92.03515625 C2.00476563 92.02355469 1.01734375 92.01195312 0 92 C-1.27485807 88.17542578 -1.13934603 84.58177929 -1.12939453 80.59716797 C-1.13114685 79.74002197 -1.13289917 78.88287598 -1.13470459 77.99975586 C-1.13910945 75.16387921 -1.13619042 72.3280648 -1.1328125 69.4921875 C-1.13348581 67.52588896 -1.13445606 65.55959049 -1.13571167 63.59329224 C-1.13718669 59.47250577 -1.13503989 55.35174098 -1.13037109 51.23095703 C-1.12466644 45.93662739 -1.12795871 40.64234835 -1.13394356 35.34802055 C-1.13754806 31.28870254 -1.13641123 27.22939664 -1.13381577 23.17007828 C-1.13314658 21.21714395 -1.13397464 19.26420854 -1.13629532 17.31127548 C-1.13882084 14.58883478 -1.13498303 11.86647743 -1.12939453 9.14404297 C-1.13141876 8.32948639 -1.13344299 7.51492981 -1.13552856 6.6756897 C-1.11426407 1.11426407 -1.11426407 1.11426407 0 0 Z " fill="#31525F" transform="translate(700,77)"/>
<path d="M0 0 C4.86565991 4.04806951 7.47104845 8.32612631 8.3125 14.6875 C8.395 15.863125 8.4775 17.03875 8.5625 18.25 C-5.03731142 19.32772091 -5.03731142 19.32772091 -8.37109375 16.76171875 C-9.5625 14.875 -9.5625 14.875 -10.55078125 12.94140625 C-11.3778914 11.01610746 -11.3778914 11.01610746 -13.75 9.8125 C-19.35373347 8.63962555 -24.22703475 8.64476738 -29.4375 11.25 C-29.4375 13.89 -29.4375 16.53 -29.4375 19.25 C-23.11322401 20.60991738 -16.87724581 21.62679879 -10.4375 22.25 C-10.4375 22.91 -10.4375 23.57 -10.4375 24.25 C-9.2825 24.311875 -8.1275 24.37375 -6.9375 24.4375 C-1.93152842 25.10318771 1.83910647 26.81428588 5.5625 30.25 C9.56778717 35.71474798 10.1172391 41.0869244 9.15234375 47.67578125 C7.69686644 54.02783124 5.33013653 57.03663703 -0.1875 60.5625 C-10.01153501 65.93278153 -20.17252566 66.62763799 -31.125 64.25 C-38.34440122 62.04552293 -43.39410342 57.34605543 -47.5 51.125 C-48.4375 48.25 -48.4375 48.25 -48.4375 42.25 C-43.4875 41.92 -38.5375 41.59 -33.4375 41.25 C-32.1175 43.23 -30.7975 45.21 -29.4375 47.25 C-25.04385032 50.17909978 -20.65612934 50.33709813 -15.4375 50.25 C-12.77717379 49.53814599 -10.86571332 48.5990074 -8.4375 47.25 C-8.02003392 44.37635209 -8.02003392 44.37635209 -8.4375 41.25 C-12.65339674 37.81451071 -17.49221602 37.29318218 -22.6875 36.375 C-31.08296184 34.74367697 -37.94696356 33.00232667 -43.9375 26.5625 C-47.45801041 21.13504645 -46.97855245 15.58031368 -46.4375 9.25 C-44.875 5.8125 -44.875 5.8125 -42.4375 3.25 C-41.963125 2.72921875 -41.48875 2.2084375 -41 1.671875 C-30.46343953 -8.76337239 -11.71476742 -8.14372308 0 0 Z " fill="#30505D" transform="translate(682.4375,104.75)"/>
<path d="M0 0 C1.48831242 0.00667405 2.97660807 0.01863442 4.46484375 0.03515625 C5.22345703 0.03966797 5.98207031 0.04417969 6.76367188 0.04882812 C8.64326246 0.06064945 10.52281274 0.07858547 12.40234375 0.09765625 C14.06534542 3.42365959 13.47925754 7.14408027 13.4296875 10.796875 C13.41703277 12.58137821 13.40467244 14.36588353 13.39257812 16.15039062 C13.36783487 18.96352704 13.33994635 21.77655393 13.30639648 24.58959961 C13.27602598 27.3045315 13.2583609 30.01932643 13.2421875 32.734375 C13.22872787 33.56692307 13.21526825 34.39947113 13.20140076 35.25724792 C13.18009101 40.26402185 13.63361485 44.39089915 15.40234375 49.09765625 C17.96569373 51.53894195 19.78366768 52.99945868 23.3984375 53.21875 C27.64715759 52.84126447 31.06805178 51.86035531 34.40234375 49.09765625 C37.80557142 43.83798275 37.78732151 39.40041254 37.66015625 33.359375 C37.65353973 32.43800247 37.64692322 31.51662994 37.6401062 30.56733704 C37.61679045 27.63959631 37.57305914 24.7126255 37.52734375 21.78515625 C37.49231865 18.8399291 37.4615665 15.8947415 37.43600464 12.94941711 C37.41897735 11.11974751 37.39579494 9.29012325 37.36599731 7.46061707 C37.34080131 5.33974518 37.36625672 3.21837078 37.40234375 1.09765625 C38.40234375 0.09765625 38.40234375 0.09765625 42 0 C43.48831242 0.00667405 44.97660807 0.01863442 46.46484375 0.03515625 C47.22345703 0.03966797 47.98207031 0.04417969 48.76367188 0.04882812 C50.64326246 0.06064945 52.52281274 0.07858547 54.40234375 0.09765625 C54.55594097 8.68562331 54.70412261 17.27365911 54.84530735 25.86183834 C54.91103043 29.8492693 54.97864938 33.83664965 55.05053711 37.82397461 C55.11978773 41.66884054 55.18414195 45.51375956 55.24503899 49.35876656 C55.26919529 50.8288733 55.29514395 52.29895168 55.32287788 53.76899529 C55.36129338 55.82113071 55.39344984 57.87327274 55.42407227 59.92553711 C55.44405777 61.09579941 55.46404327 62.26606171 55.4846344 63.4717865 C55.40234375 66.09765625 55.40234375 66.09765625 54.40234375 67.09765625 C51.87184973 67.17079192 49.36929538 67.19013152 46.83984375 67.16015625 C45.7734668 67.15338867 45.7734668 67.15338867 44.68554688 67.14648438 C42.92444362 67.13466489 41.16338339 67.11672888 39.40234375 67.09765625 C39.07234375 65.44765625 38.74234375 63.79765625 38.40234375 62.09765625 C37.43296875 62.86078125 36.46359375 63.62390625 35.46484375 64.41015625 C30.10021304 68.13975011 25.66529616 70.36333242 18.99609375 69.8203125 C11.61566337 68.48773479 5.54552794 66.71290447 0.40234375 61.09765625 C-3.81068752 54.40893404 -4.21053769 47.82561147 -4.2421875 40.09765625 C-4.26109543 38.98076416 -4.28000336 37.86387207 -4.29948425 36.71313477 C-4.33579209 34.37023866 -4.36302137 32.02718587 -4.3815918 29.68408203 C-4.41029257 26.08054018 -4.46541165 22.47814495 -4.52539062 18.875 C-4.55750411 16.59507291 -4.58815591 14.31512466 -4.6171875 12.03515625 C-4.63167435 10.95298828 -4.64616119 9.87082031 -4.66108704 8.75585938 C-4.66827255 7.76392578 -4.67545807 6.77199219 -4.68286133 5.75 C-4.69078201 4.87335693 -4.6987027 3.99671387 -4.7068634 3.09350586 C-4.51246753 -0.459237 -3.69343173 0.10025602 0 0 Z " fill="#305160" transform="translate(305.59765625,100.90234375)"/>
<path d="M0 0 C0.05394705 2.60444348 0.09364469 5.20776998 0.125 7.8125 C0.14175781 8.55048828 0.15851563 9.28847656 0.17578125 10.04882812 C0.21074628 13.91246426 0.19397555 15.70903668 -2 19 C-2.66 18.67 -3.32 18.34 -4 18 C-9.57335568 17.62844295 -13.23651851 17.75217171 -18 21 C-23.00581605 27.22344698 -23.15135535 32.84403312 -23.31640625 40.58203125 C-23.33718735 41.39621017 -23.35796844 42.2103891 -23.37937927 43.04924011 C-23.44449463 45.63691179 -23.50358208 48.22468053 -23.5625 50.8125 C-23.60572142 52.57227545 -23.64933685 54.33204128 -23.69335938 56.09179688 C-23.80087457 60.39443344 -23.9002299 64.69714903 -24 69 C-29.61 69 -35.22 69 -41 69 C-41.02255359 60.41193889 -41.04091657 51.82390064 -41.05181217 43.23581791 C-41.05704036 39.248428 -41.06413684 35.26105933 -41.07543945 31.27368164 C-41.08627061 27.42874886 -41.09227732 23.58383655 -41.09487724 19.73888969 C-41.09673108 18.26881017 -41.10035091 16.79873182 -41.10573006 15.32866096 C-41.11294355 13.27645533 -41.11399081 11.22433533 -41.11352539 9.17211914 C-41.115746 8.00185684 -41.11796661 6.83159454 -41.12025452 5.62586975 C-41 3 -41 3 -40 2 C-37.88103187 1.737318 -35.75384336 1.53948017 -33.625 1.375 C-32.46226562 1.27960938 -31.29953125 1.18421875 -30.1015625 1.0859375 C-27 1 -27 1 -24 2 C-23.67 4.31 -23.34 6.62 -23 9 C-22.29875 8.236875 -21.5975 7.47375 -20.875 6.6875 C-14.33548964 0.57447945 -8.47416701 -0.04279882 0 0 Z " fill="#2F505E" transform="translate(410,99)"/>
<path d="M0 0 C15.51 0 31.02 0 47 0 C51 12 51 12 51 16 C32.85 16 14.7 16 -4 16 C-2.68 10.72 -1.36 5.44 0 0 Z " fill="#9FABB1" transform="translate(82,214)"/>
<path d="M0 0 C1.48831242 0.00667405 2.97660807 0.01863442 4.46484375 0.03515625 C5.22345703 0.03966797 5.98207031 0.04417969 6.76367188 0.04882812 C8.64326246 0.06064945 10.52281274 0.07858547 12.40234375 0.09765625 C13.57953701 2.45204276 13.49140371 3.7453244 13.42407227 6.36376953 C13.39392784 7.68491257 13.39392784 7.68491257 13.36317444 9.03274536 C13.32262184 10.46093094 13.32262184 10.46093094 13.28125 11.91796875 C13.25763901 12.89176483 13.23402802 13.86556091 13.20970154 14.86886597 C13.13297224 17.98694097 13.04898775 21.10477337 12.96484375 24.22265625 C12.91163235 26.33332136 12.85889189 28.4439984 12.80664062 30.5546875 C12.67734462 35.73582802 12.54208741 40.91678757 12.40234375 46.09765625 C10.81702823 43.28685351 10.15436771 41.28596633 10.17529297 38.06347656 C10.17551956 36.89271576 10.17551956 36.89271576 10.17575073 35.69830322 C10.19123459 34.44965485 10.19123459 34.44965485 10.20703125 33.17578125 C10.20986115 32.31579529 10.21269104 31.45580933 10.21560669 30.56976318 C10.22678225 27.82891804 10.25188196 25.08840227 10.27734375 22.34765625 C10.28737695 20.48698389 10.2965022 18.6263064 10.3046875 16.765625 C10.32671299 12.20950893 10.36122478 7.65363839 10.40234375 3.09765625 C6.44234375 3.09765625 2.48234375 3.09765625 -1.59765625 3.09765625 C-1.55338954 9.92999384 -1.48343376 16.76141738 -1.39013672 23.59326172 C-1.36199093 25.91512764 -1.34074476 28.23708824 -1.32666016 30.55908203 C-1.3051427 33.90576424 -1.25844501 37.25131574 -1.20703125 40.59765625 C-1.20518829 42.1434436 -1.20518829 42.1434436 -1.20330811 43.72045898 C-1.05958634 50.86632288 0.01092285 56.59467545 5.18359375 61.9375 C6.034375 62.48083984 6.034375 62.48083984 6.90234375 63.03515625 C7.46953125 63.41542969 8.03671875 63.79570312 8.62109375 64.1875 C14.87462955 67.38283737 22.87230892 66.73882572 29.48046875 64.94140625 C32.46769357 63.62994169 34.63512769 61.59695001 36.95703125 59.33984375 C38.40234375 58.09765625 38.40234375 58.09765625 40.40234375 58.09765625 C40.89734375 62.05765625 40.89734375 62.05765625 41.40234375 66.09765625 C45.36234375 66.09765625 49.32234375 66.09765625 53.40234375 66.09765625 C53.40234375 44.97765625 53.40234375 23.85765625 53.40234375 2.09765625 C49.11234375 2.09765625 44.82234375 2.09765625 40.40234375 2.09765625 C40.4180542 3.8916687 40.4180542 3.8916687 40.43408203 5.72192383 C40.4702578 10.15548718 40.49323541 14.58903746 40.51220703 19.02270508 C40.52227014 20.94232374 40.53592191 22.86192706 40.55322266 24.78149414 C40.57745739 27.53926377 40.58882367 30.29683089 40.59765625 33.0546875 C40.60797882 33.91415482 40.61830139 34.77362213 40.62893677 35.65913391 C40.62916336 36.86003914 40.62916336 36.86003914 40.62939453 38.08520508 C40.63383575 38.78913895 40.63827698 39.49307281 40.64285278 40.21833801 C40.40234375 42.09765625 40.40234375 42.09765625 38.40234375 45.09765625 C37.77386348 33.6613212 37.30012892 22.2403984 37.27734375 10.78515625 C37.27283203 9.83108887 37.26832031 8.87702148 37.26367188 7.89404297 C37.26560547 7.01635254 37.26753906 6.13866211 37.26953125 5.234375 C37.27065918 4.45795654 37.27178711 3.68153809 37.27294922 2.8815918 C37.40234375 1.09765625 37.40234375 1.09765625 38.40234375 0.09765625 C41.09889229 0.02446004 43.76925833 0.00523088 46.46484375 0.03515625 C47.22345703 0.03966797 47.98207031 0.04417969 48.76367188 0.04882812 C50.64326246 0.06064945 52.52281274 0.07858547 54.40234375 0.09765625 C54.55594097 8.68562331 54.70412261 17.27365911 54.84530735 25.86183834 C54.91103043 29.8492693 54.97864938 33.83664965 55.05053711 37.82397461 C55.11978773 41.66884054 55.18414195 45.51375956 55.24503899 49.35876656 C55.26919529 50.8288733 55.29514395 52.29895168 55.32287788 53.76899529 C55.36129338 55.82113071 55.39344984 57.87327274 55.42407227 59.92553711 C55.44405777 61.09579941 55.46404327 62.26606171 55.4846344 63.4717865 C55.40234375 66.09765625 55.40234375 66.09765625 54.40234375 67.09765625 C51.87184973 67.17079192 49.36929538 67.19013152 46.83984375 67.16015625 C45.7734668 67.15338867 45.7734668 67.15338867 44.68554688 67.14648438 C42.92444362 67.13466489 41.16338339 67.11672888 39.40234375 67.09765625 C39.07234375 65.44765625 38.74234375 63.79765625 38.40234375 62.09765625 C37.43296875 62.86078125 36.46359375 63.62390625 35.46484375 64.41015625 C30.10021304 68.13975011 25.66529616 70.36333242 18.99609375 69.8203125 C11.61566337 68.48773479 5.54552794 66.71290447 0.40234375 61.09765625 C-3.81068752 54.40893404 -4.21053769 47.82561147 -4.2421875 40.09765625 C-4.26109543 38.98076416 -4.28000336 37.86387207 -4.29948425 36.71313477 C-4.33579209 34.37023866 -4.36302137 32.02718587 -4.3815918 29.68408203 C-4.41029257 26.08054018 -4.46541165 22.47814495 -4.52539062 18.875 C-4.55750411 16.59507291 -4.58815591 14.31512466 -4.6171875 12.03515625 C-4.63167435 10.95298828 -4.64616119 9.87082031 -4.66108704 8.75585938 C-4.66827255 7.76392578 -4.67545807 6.77199219 -4.68286133 5.75 C-4.69078201 4.87335693 -4.6987027 3.99671387 -4.7068634 3.09350586 C-4.51246753 -0.459237 -3.69343173 0.10025602 0 0 Z " fill="#263E47" transform="translate(305.59765625,100.90234375)"/>
<path d="M0 0 C1.10408203 -0.02900391 2.20816406 -0.05800781 3.34570312 -0.08789062 C11.85472805 -0.15322868 18.81680516 1.06020917 25.68359375 6.3203125 C34.49243932 16.58782713 34.4952728 26.39343043 34.0625 39.3125 C33.7325 39.3125 33.4025 39.3125 33.0625 39.3125 C32.99780518 38.71824219 32.93311035 38.12398437 32.86645508 37.51171875 C32.55664928 34.77585437 32.21606116 32.04463697 31.875 29.3125 C31.77380859 28.37792969 31.67261719 27.44335938 31.56835938 26.48046875 C30.55481925 18.6460775 28.0450657 12.73598854 22.0625 7.4375 C14.66721204 2.19917103 6.40230141 2.18143867 -2.375 1.75 C-3.20193359 1.70681641 -4.02886719 1.66363281 -4.88085938 1.61914062 C-6.89959549 1.51411967 -8.91852951 1.41291441 -10.9375 1.3125 C-10.90720703 2.44977539 -10.87691406 3.58705078 -10.84570312 4.75878906 C-10.73123815 9.08277846 -10.62028391 13.4068527 -10.51025391 17.73095703 C-10.46267072 19.5828689 -10.41420434 21.43475835 -10.36474609 23.28662109 C-10.01799548 36.30038402 -9.89041596 49.29376302 -9.9375 62.3125 C-2.0175 62.3125 5.9025 62.3125 14.0625 62.3125 C10.71130481 64.54663013 9.6447245 64.55097762 5.73828125 64.5078125 C4.71025391 64.50136719 3.68222656 64.49492187 2.62304688 64.48828125 C1.01526367 64.46314453 1.01526367 64.46314453 -0.625 64.4375 C-1.70845703 64.42847656 -2.79191406 64.41945313 -3.90820312 64.41015625 C-6.5848571 64.3865734 -9.26106797 64.35366126 -11.9375 64.3125 C-13.28588383 61.61573233 -13.06466247 59.52102221 -13.06689453 56.50170898 C-13.07004669 55.28382187 -13.07319885 54.06593475 -13.07644653 52.81114197 C-13.07465689 51.47695886 -13.07260597 50.14277608 -13.0703125 48.80859375 C-13.07098581 47.44621259 -13.07195606 46.08383155 -13.07321167 44.72145081 C-13.07468686 41.86580258 -13.07253948 39.01018561 -13.06787109 36.15454102 C-13.06216849 32.48675015 -13.06545727 28.81903236 -13.07144356 25.15124416 C-13.07504938 22.338358 -13.07391059 19.52548929 -13.07131577 16.71260262 C-13.07064683 15.35975193 -13.07147375 14.00689968 -13.07379532 12.65405083 C-13.07632273 10.767333 -13.07179043 8.88060965 -13.06689453 6.99389648 C-13.06609894 5.91849106 -13.06530334 4.84308563 -13.06448364 3.73509216 C-12.75666382 -2.13749009 -4.51220101 0.03830391 0 0 Z " fill="#2B454E" transform="translate(507.9375,90.6875)"/>
<path d="M0 0 C11.11926307 -0.4412406 21.13487181 2.88469438 30.3984375 8.83984375 C36.57961435 14.85835805 39.96578058 21.76418136 41.7734375 30.15234375 C41.7734375 30.81234375 41.7734375 31.47234375 41.7734375 32.15234375 C35.73789202 32.84494733 29.84937312 33.26486108 23.7734375 33.15234375 C23.7734375 31.50234375 23.7734375 29.85234375 23.7734375 28.15234375 C24.7634375 28.48234375 25.7534375 28.81234375 26.7734375 29.15234375 C28.83237371 29.37560189 30.89577403 29.55940134 32.9609375 29.71484375 C34.04761719 29.79863281 35.13429688 29.88242188 36.25390625 29.96875 C37.08535156 30.02933594 37.91679687 30.08992188 38.7734375 30.15234375 C36.59005173 20.80592046 32.87672443 13.56487417 24.69921875 8.1796875 C14.32567351 2.64572726 1.32613561 1.37089488 -10.01171875 4.34375 C-19.22746896 7.70823024 -26.76637941 13.9116564 -31.5390625 22.51953125 C-33.41511582 26.61650064 -34.90146515 30.84577736 -36.2265625 35.15234375 C-36.5565625 35.15234375 -36.8865625 35.15234375 -37.2265625 35.15234375 C-37.07081201 25.80731456 -33.28233547 18.77226559 -27.1484375 11.78515625 C-19.3860865 4.38579288 -10.62050388 0.72666606 0 0 Z " fill="#243945" transform="translate(252.2265625,75.84765625)"/>
<path d="M0 0 C0.33 0.66 0.66 1.32 1 2 C1.66 2 2.32 2 3 2 C3 3.98 3 5.96 3 8 C2.67 8 2.34 8 2 8 C2 6.35 2 4.7 2 3 C-2.29 3 -6.58 3 -11 3 C-10.9278125 4.28648438 -10.855625 5.57296875 -10.78125 6.8984375 C-9.74272586 26.60267749 -9.32537591 46.32316698 -11 66 C-6.71 66 -2.42 66 2 66 C1.98952637 64.91992676 1.97905273 63.83985352 1.96826172 62.72705078 C1.93211806 58.72773541 1.90912016 54.72843454 1.89013672 50.72900391 C1.88006624 48.99655735 1.86640911 47.26412784 1.84912109 45.53173828 C1.82491838 43.04455361 1.81352761 40.55759325 1.8046875 38.0703125 C1.79436493 37.29317902 1.78404236 36.51604553 1.77340698 35.71536255 C1.77300729 33.80874507 1.8776786 31.90268964 2 30 C2.66 29.34 3.32 28.68 4 28 C4 41.2 4 54.4 4 68 C-1.61 68 -7.22 68 -13 68 C-13.02255359 59.41193889 -13.04091657 50.82390064 -13.05181217 42.23581791 C-13.05704036 38.248428 -13.06413684 34.26105933 -13.07543945 30.27368164 C-13.08627061 26.42874886 -13.09227732 22.58383655 -13.09487724 18.73888969 C-13.09673108 17.26881017 -13.10035091 15.79873182 -13.10573006 14.32866096 C-13.11294355 12.27645533 -13.11399081 10.22433533 -13.11352539 8.17211914 C-13.115746 7.00185684 -13.11796661 5.83159454 -13.12025452 4.62586975 C-13 2 -13 2 -12 1 C-9.98405418 0.76572222 -7.961526 0.58663876 -5.9375 0.4375 C-4.28041016 0.31181641 -4.28041016 0.31181641 -2.58984375 0.18359375 C-1.30787109 0.09271484 -1.30787109 0.09271484 0 0 Z " fill="#1B2E37" transform="translate(382,100)"/>
<path d="M0 0 C2.45552385 0.38743873 3.71075932 0.69594646 5.44921875 2.5234375 C5.85785156 3.13445312 6.26648438 3.74546875 6.6875 4.375 C7.10386719 4.98085937 7.52023438 5.58671875 7.94921875 6.2109375 C9.7518512 9.28010352 10.12444963 11.83125535 10.12025452 15.30900574 C10.12162918 16.18820175 10.12300385 17.06739777 10.12442017 17.97323608 C10.12082489 18.93492706 10.11722961 19.89661804 10.11352539 20.88745117 C10.11367142 21.90226059 10.11381744 22.91707001 10.1139679 23.96263123 C10.11327026 27.32276535 10.10548478 30.68284429 10.09765625 34.04296875 C10.09579154 36.37038645 10.09436789 38.69780454 10.09336853 41.02522278 C10.08954751 47.15564047 10.07972074 53.28603453 10.06866455 59.41644287 C10.05844152 65.67020345 10.05386899 71.92396785 10.04882812 78.17773438 C10.03809813 90.45183331 10.02102666 102.72591469 10 115 C9.34 115 8.68 115 8 115 C7.99635437 113.69787567 7.99270874 112.39575134 7.98895264 111.0541687 C7.95201079 98.78262271 7.89424664 86.51132785 7.81609726 74.23997307 C7.77658896 67.93113031 7.74441674 61.62242785 7.72900391 55.31347656 C7.71385971 49.22492339 7.67945317 43.1367558 7.63169098 37.04837418 C7.61685423 34.72560096 7.60895768 32.40277269 7.60811615 30.07995224 C7.60575175 26.82615807 7.57871281 23.57343405 7.54589844 20.31982422 C7.5509288 19.35956833 7.55595917 18.39931244 7.56114197 17.40995789 C7.47274715 11.74433961 6.74485689 8.51754133 3 4 C2.4225 3.21625 1.845 2.4325 1.25 1.625 C0.8375 1.08875 0.425 0.5525 0 0 Z " fill="#253D47" transform="translate(188,80)"/>
<path d="M0 0 C0.33 0 0.66 0 1 0 C1.042721 1.66611905 1.04063832 3.33382885 1 5 C-0.87788672 6.87788672 -3.59165909 6.12008587 -6.08978271 6.12442017 C-6.96515686 6.12082489 -7.84053101 6.11722961 -8.74243164 6.11352539 C-10.11790413 6.11374443 -10.11790413 6.11374443 -11.52116394 6.1139679 C-14.56751836 6.1132684 -17.61381245 6.10547428 -20.66015625 6.09765625 C-22.76622993 6.0957922 -24.87230403 6.09436824 -26.9783783 6.09336853 C-32.53342883 6.08954231 -38.08845341 6.07971114 -43.64349365 6.06866455 C-49.3072474 6.05845267 -54.97100533 6.05387139 -60.63476562 6.04882812 C-71.75652185 6.03808896 -82.87825877 6.0210113 -94 6 C-93.67 5.34 -93.34 4.68 -93 4 C-62.64 3.67 -32.28 3.34 -1 3 C-0.67 2.01 -0.34 1.02 0 0 Z " fill="#26404C" transform="translate(153,234)"/>
<path d="M0 0 C5.28 0 10.56 0 16 0 C16.33 21.78 16.66 43.56 17 66 C16.34 66 15.68 66 15 66 C15 44.88 15 23.76 15 2 C10.71 2 6.42 2 2 2 C2.01047363 3.1960083 2.02094727 4.3920166 2.03173828 5.62426758 C2.06791405 10.05783093 2.09089166 14.49138121 2.10986328 18.92504883 C2.11992639 20.84466749 2.13357816 22.76427081 2.15087891 24.68383789 C2.17511364 27.44160752 2.18647992 30.19917464 2.1953125 32.95703125 C2.20563507 33.81649857 2.21595764 34.67596588 2.22659302 35.56147766 C2.22674408 36.36208115 2.22689514 37.16268463 2.22705078 37.98754883 C2.231492 38.6914827 2.23593323 39.39541656 2.24050903 40.12068176 C2 42 2 42 0 45 C-0.62848027 33.56366495 -1.10221483 22.14274215 -1.125 10.6875 C-1.12951172 9.73343262 -1.13402344 8.77936523 -1.13867188 7.79638672 C-1.13673828 6.91869629 -1.13480469 6.04100586 -1.1328125 5.13671875 C-1.13168457 4.36030029 -1.13055664 3.58388184 -1.12939453 2.78393555 C-1 1 -1 1 0 0 Z " fill="#1B2C33" transform="translate(344,101)"/>
<path d="M0 0 C4.48042776 4.05179478 7.33514776 8.4963263 10.375 13.6875 C13.9811887 19.73666947 17.65933226 25.5896379 21.85546875 31.25 C23 33 23 33 23 35 C20.08344849 35.30305731 17.17156149 35.56828972 14.25 35.8125 C13.425 35.90208984 12.6 35.99167969 11.75 36.08398438 C5.65369617 36.55103991 5.65369617 36.55103991 2.8359375 34.17578125 C2.23007812 33.12777344 1.62421875 32.07976562 1 31 C-0.05301219 29.34008187 -1.1078983 27.68135187 -2.1640625 26.0234375 C-3.32104814 24.14267546 -4.47460431 22.25980009 -5.625 20.375 C-6.78347067 18.48674384 -7.94230879 16.59871304 -9.1015625 14.7109375 C-9.86460693 13.46256104 -9.86460693 13.46256104 -10.64306641 12.18896484 C-11.72846019 10.43803993 -12.85728829 8.71406757 -14 7 C-13.67 6.01 -13.34 5.02 -13 4 C-10.72809281 7.56181623 -8.45766406 11.12457256 -6.1875 14.6875 C-5.54490234 15.69490234 -4.90230469 16.70230469 -4.24023438 17.74023438 C-3.61826172 18.71669922 -2.99628906 19.69316406 -2.35546875 20.69921875 C-1.78465576 21.59471436 -1.21384277 22.49020996 -0.62573242 23.4128418 C-0.08924072 24.266604 0.44725098 25.12036621 1 26 C1.84630981 27.33961792 1.84630981 27.33961792 2.7097168 28.70629883 C4 31 4 31 4 33 C8.95 32.67 13.9 32.34 19 32 C18.29875 30.92363281 17.5975 29.84726563 16.875 28.73828125 C12.30551492 21.71085085 7.74430028 14.67784168 3.3125 7.5625 C2.66925781 6.53253906 2.02601563 5.50257813 1.36328125 4.44140625 C0 2 0 2 0 0 Z " fill="#21343C" transform="translate(738,133)"/>
<path d="M0 0 C3.91875 -0.0825 7.8375 -0.165 11.875 -0.25 C13.69620361 -0.30462402 13.69620361 -0.30462402 15.55419922 -0.36035156 C23.98139683 -0.4453778 30.8276706 0.80390862 37.62109375 6.0078125 C46.42993932 16.27532713 46.4327728 26.08093043 46 39 C45.67 39 45.34 39 45 39 C44.93530518 38.40574219 44.87061035 37.81148437 44.80395508 37.19921875 C44.49414928 34.46335437 44.15356116 31.73213697 43.8125 29 C43.71130859 28.06542969 43.61011719 27.13085938 43.50585938 26.16796875 C42.49231925 18.3335775 39.9825657 12.42348854 34 7.125 C26.60599448 1.88757942 18.33640409 1.86921514 9.5625 1.4375 C6.736875 1.293125 3.91125 1.14875 1 1 C1.33 11.23 1.66 21.46 2 32 C1.34 32 0.68 32 0 32 C0 21.44 0 10.88 0 0 Z " fill="#1C2C35" transform="translate(496,91)"/>
<path d="M0 0 C6.62842427 0.28819236 11.78452788 2.92868996 17 7 C18.29296875 9.19921875 18.29296875 9.19921875 19 11 C19.66 11 20.32 11 21 11 C22.62109375 13.2734375 22.62109375 13.2734375 24.4375 16.375 C25.33275391 17.87160156 25.33275391 17.87160156 26.24609375 19.3984375 C30.3061667 27.1742623 31.48984218 34.87915549 31.375 43.5625 C31.38660156 44.44357422 31.39820313 45.32464844 31.41015625 46.23242188 C31.38319897 52.3202732 30.26574979 57.35627017 28 63 C27.0141905 59.50165656 27.28483023 57.5710166 28 54 C28.20756539 50.60450093 28.23082527 47.21361759 28.25 43.8125 C28.270625 42.91724609 28.29125 42.02199219 28.3125 41.09960938 C28.37830777 29.70663948 24.83508493 19.57726679 17.21875 10.9921875 C12.17042516 6.21283078 6.40884357 3.55646885 0 1 C0 0.67 0 0.34 0 0 Z " fill="#20353F" transform="translate(527,79)"/>
<path d="M0 0 C2.01373487 2.01373487 2.69056244 3.37375331 3.8125 5.9375 C5.6572566 9.65394396 6.98871267 11.48462479 11 13 C17.31202401 14.56262583 23.27589819 14.32139241 29 11 C29.556875 9.948125 30.11375 8.89625 30.6875 7.8125 C33 5 33 5 36.34765625 4.61328125 C39.91608133 4.62399724 43.44132266 4.74309014 47 5 C48 8 48 8 47.22265625 10.04296875 C46.64837891 11.10451172 46.64837891 11.10451172 46.0625 12.1875 C45.49208984 13.26064453 45.49208984 13.26064453 44.91015625 14.35546875 C44.60980469 14.89816406 44.30945313 15.44085938 44 16 C43 13 43 13 45 8 C41.04 8 37.08 8 33 8 C32.67 9.32 32.34 10.64 32 12 C26.25423788 16.57049259 21.24908316 17.61432908 14 17 C8.16846843 15.05615614 4.3261996 12.14049029 1 7 C0.1875 3.125 0.1875 3.125 0 0 Z " fill="#283D46" transform="translate(580,141)"/>
<path d="M0 0 C0.66 0 1.32 0 2 0 C2.79089045 3.49333507 3.13021096 6.72692329 3.14526367 10.3059082 C3.15483345 11.8582592 3.15483345 11.8582592 3.16459656 13.44197083 C3.16570938 14.55037827 3.1668222 15.65878571 3.16796875 16.80078125 C3.17129715 17.9511235 3.17462555 19.10146576 3.17805481 20.28666687 C3.18311268 22.71836956 3.18546349 25.15007917 3.18530273 27.58178711 C3.18748579 31.28836607 3.20564449 34.99464567 3.22460938 38.70117188 C3.22754427 41.06770732 3.22952842 43.43424417 3.23046875 45.80078125 C3.23765427 46.903116 3.24483978 48.00545074 3.25224304 49.14118958 C3.23462956 55.12005877 2.7434994 60.27283985 1 66 C0.67 66 0.34 66 0 66 C0 44.22 0 22.44 0 0 Z " fill="#223742" transform="translate(155,54)"/>
<path d="M0 0 C0.33 0 0.66 0 1 0 C1 23.1 1 46.2 1 70 C5.29 70 9.58 70 14 70 C14 63.07 14 56.14 14 49 C14.33 49 14.66 49 15 49 C15 56.92 15 64.84 15 73 C10.05 73 5.1 73 0 73 C-1.15933806 69.52198582 -1.08100867 66.9024254 -1.02172852 63.23364258 C-1.0073172 62.20886055 -1.0073172 62.20886055 -0.99261475 61.16337585 C-0.95965457 58.9069885 -0.91931105 56.65079656 -0.87890625 54.39453125 C-0.85460221 52.82940864 -0.83075879 51.26427882 -0.80735779 49.69914246 C-0.74454509 45.58089984 -0.67547048 41.46278506 -0.60510254 37.34466553 C-0.53439368 33.14194558 -0.46959199 28.93913505 -0.40429688 24.73632812 C-0.2753208 16.4907851 -0.13973097 8.24536775 0 0 Z " fill="#0F1A21" transform="translate(700,96)"/>
<path d="M0 0 C1.48831242 0.00667405 2.97660807 0.01863442 4.46484375 0.03515625 C5.22345703 0.03966797 5.98207031 0.04417969 6.76367188 0.04882812 C8.64326246 0.06064945 10.52281274 0.07858547 12.40234375 0.09765625 C13.57953701 2.45204276 13.49140371 3.7453244 13.42407227 6.36376953 C13.39392784 7.68491257 13.39392784 7.68491257 13.36317444 9.03274536 C13.32262184 10.46093094 13.32262184 10.46093094 13.28125 11.91796875 C13.25763901 12.89176483 13.23402802 13.86556091 13.20970154 14.86886597 C13.13297224 17.98694097 13.04898775 21.10477337 12.96484375 24.22265625 C12.91163235 26.33332136 12.85889189 28.4439984 12.80664062 30.5546875 C12.67734462 35.73582802 12.54208741 40.91678757 12.40234375 46.09765625 C12.07234375 46.09765625 11.74234375 46.09765625 11.40234375 46.09765625 C11.40234375 31.57765625 11.40234375 17.05765625 11.40234375 2.09765625 C6.78234375 2.09765625 2.16234375 2.09765625 -2.59765625 2.09765625 C-2.59765625 16.28765625 -2.59765625 30.47765625 -2.59765625 45.09765625 C-2.92765625 45.09765625 -3.25765625 45.09765625 -3.59765625 45.09765625 C-3.7654965 38.84986159 -3.92545731 32.60190152 -4.07983398 26.35375977 C-4.13333831 24.2264342 -4.18867389 22.09915389 -4.24584961 19.97192383 C-4.32752606 16.92148605 -4.40270306 13.87094828 -4.4765625 10.8203125 C-4.50359756 9.8630275 -4.53063263 8.90574249 -4.55848694 7.91944885 C-4.57858322 7.0386113 -4.5986795 6.15777374 -4.61938477 5.25024414 C-4.63937027 4.47080948 -4.65935577 3.69137482 -4.6799469 2.88832092 C-4.52412238 -0.50245882 -3.47836395 0.09441813 0 0 Z " fill="#16252D" transform="translate(305.59765625,100.90234375)"/>
<path d="M0 0 C0.99 0.495 0.99 0.495 2 1 C2 8.26 2 15.52 2 23 C2.66 23.33 3.32 23.66 4 24 C3.34 24 2.68 24 2 24 C2 35.22 2 46.44 2 58 C1.01 58.495 1.01 58.495 0 59 C0 39.53 0 20.06 0 0 Z " fill="#2C424F" transform="translate(165,57)"/>
<path d="M0 0 C-3 2 -3 2 -5.26953125 3.19140625 C-13.59068081 7.67792468 -17.91910048 13.02332818 -20.875 22 C-22.71131556 29.52781993 -22.24338185 37.31093623 -22 45 C-22.66 45 -23.32 45 -24 45 C-26.50165083 33.42986492 -25.40373976 22.2026037 -19.35546875 12.00390625 C-14.63283435 5.02202888 -8.59533951 -0.23230647 0 0 Z " fill="#20343D" transform="translate(589,101)"/>
<path d="M0 0 C0.79277344 0.06574219 1.58554687 0.13148437 2.40234375 0.19921875 C4.35326366 0.36375416 6.30195497 0.55434482 8.25 0.75 C6.77278578 4.20201639 4.81205999 6.39961936 2.125 9 C1.40054688 9.70640625 0.67609375 10.4128125 -0.0703125 11.140625 C-0.62460937 11.67171875 -1.17890625 12.2028125 -1.75 12.75 C-2.41 12.42 -3.07 12.09 -3.75 11.75 C-3.25628906 11.26789063 -2.76257813 10.78578125 -2.25390625 10.2890625 C-1.61324219 9.65742187 -0.97257813 9.02578125 -0.3125 8.375 C0.32558594 7.74851562 0.96367188 7.12203125 1.62109375 6.4765625 C3.32882176 4.83276939 3.32882176 4.83276939 4.25 2.75 C-1.17469311 2.26049367 -6.89197868 1.75064204 -11.52636719 4.99267578 C-15.38091908 8.5221046 -18.60422942 12.5908437 -21.75 16.75 C-23.03789459 18.45202323 -24.3574651 20.13247037 -25.75 21.75 C-26.41 21.75 -27.07 21.75 -27.75 21.75 C-26.43950105 18.88049962 -25.01142433 16.7307711 -22.8515625 14.4375 C-22.28953125 13.83679688 -21.7275 13.23609375 -21.1484375 12.6171875 C-20.27058594 11.69292969 -20.27058594 11.69292969 -19.375 10.75 C-18.7975 10.13382813 -18.22 9.51765625 -17.625 8.8828125 C-16.50337967 7.68949042 -15.37276633 6.50454373 -14.23242188 5.32910156 C-12.61696053 3.6626343 -12.61696053 3.6626343 -10.8828125 1.296875 C-7.44892712 -1.19363527 -4.07574113 -0.4258237 0 0 Z " fill="#22363F" transform="translate(749.75,100.25)"/>
<path d="M0 0 C-2.03560065 1.05241938 -4.05005624 2.01970013 -6.18359375 2.859375 C-11.66925329 5.02701863 -14.75373597 7.0291582 -18 12 C-18.91666667 14.41666667 -18.91666667 14.41666667 -19 17 C-19.103125 18.093125 -19.20625 19.18625 -19.3125 20.3125 C-18.92135181 24.92804861 -17.67982085 28.22687801 -15 32 C-11.86371213 34.48289457 -8.62511925 36.32686804 -5 38 C-12.2081448 37.63348416 -12.2081448 37.63348416 -15.8125 34.75 C-16.534375 33.8425 -17.25625 32.935 -18 32 C-18.5775 31.278125 -19.155 30.55625 -19.75 29.8125 C-22.14478112 24.42424248 -22.336193 19.01715797 -21.375 13.25 C-18.70214517 6.93234312 -15.2049609 3.50209228 -9.0703125 0.6796875 C-5.91010992 -0.35781297 -3.30017332 -0.27501444 0 0 Z " fill="#22363E" transform="translate(432,130)"/>
<path d="M0 0 C0.33 0 0.66 0 1 0 C1.08152344 2.54232342 1.14073716 5.08199202 1.1875 7.625 C1.21263672 8.33785156 1.23777344 9.05070313 1.26367188 9.78515625 C1.33015105 14.61597662 0.62978876 17.7960859 -2 22 C-4.5 24.4375 -4.5 24.4375 -7 26 C-7.99 25.67 -8.98 25.34 -10 25 C-8.576875 24.1028125 -8.576875 24.1028125 -7.125 23.1875 C-3.86035803 21.18437474 -3.86035803 21.18437474 -2 18 C-1.54084493 15.03157342 -1.54084493 15.03157342 -1.375 11.8125 C-1.25125 9.894375 -1.1275 7.97625 -1 6 C-7.27 6 -13.54 6 -20 6 C-18.68 5.67 -17.36 5.34 -16 5 C-16 4.34 -16 3.68 -16 3 C-10.72 3 -5.44 3 0 3 C0 2.01 0 1.02 0 0 Z " fill="#A1ADB3" transform="translate(187,178)"/>
<path d="M0 0 C0.99 0.33 1.98 0.66 3 1 C1.8553125 1.804375 1.8553125 1.804375 0.6875 2.625 C-3.89525572 6.67487715 -5.28945151 11.03139268 -6 17 C-1.92414812 16.9873617 2.00585146 16.85237643 6 16 C8.13438754 13.23202279 8.13438754 13.23202279 9 10 C13.8436808 5.46881473 18.70312053 5.89505201 25 6 C25.495 6.99 25.495 6.99 26 8 C24.62714844 8.14695312 24.62714844 8.14695312 23.2265625 8.296875 C21.44378906 8.52117187 21.44378906 8.52117187 19.625 8.75 C18.44164062 8.88921875 17.25828125 9.0284375 16.0390625 9.171875 C12.8911392 9.67611298 12.8911392 9.67611298 11.5859375 12.078125 C11.39257812 12.71234375 11.19921875 13.3465625 11 14 C10.34 14 9.68 14 9 14 C9 15.32 9 16.64 9 18 C5.33012779 19.22329074 2.66032178 18.88021006 -1.1875 18.5625 C-2.45980469 18.46066406 -3.73210937 18.35882813 -5.04296875 18.25390625 C-6.01878906 18.17011719 -6.99460937 18.08632812 -8 18 C-7.68205303 10.84619321 -6.26009427 6.49295815 -1.25 1.125 C-0.8375 0.75375 -0.425 0.3825 0 0 Z " fill="#253942" transform="translate(421,105)"/>
<path d="M0 0 C4.95 0 9.9 0 15 0 C15 16.83 15 33.66 15 51 C14.67 51 14.34 51 14 51 C14 34.83 14 18.66 14 2 C9.71 2 5.42 2 1 2 C1 7.28 1 12.56 1 18 C0.67 18 0.34 18 0 18 C-0.19384179 15.18780295 -0.38036603 12.37545804 -0.5625 9.5625 C-0.61857422 8.76005859 -0.67464844 7.95761719 -0.73242188 7.13085938 C-0.8616295 5.08937889 -0.9351273 3.04453631 -1 1 C-0.67 0.67 -0.34 0.34 0 0 Z " fill="#0F1C23" transform="translate(700,77)"/>
<path d="M0 0 C3.25 0.4375 3.25 0.4375 5.5 3.3125 C6.0775 4.34375 6.655 5.375 7.25 6.4375 C10.78060101 8.79123401 13.83595756 9.09528415 17.9375 9.5625 C18.9903418 9.69205078 18.9903418 9.69205078 20.06445312 9.82421875 C21.79211145 10.03576875 23.5209566 10.237586 25.25 10.4375 C20.5585344 13.2372456 16.44302487 12.43836735 11.25 11.4375 C5.82428068 9.36586171 5.82428068 9.36586171 3.9765625 6.37890625 C2.34370894 4.15477384 2.34370894 4.15477384 -0.66796875 3.828125 C-1.74691406 3.78171875 -2.82585938 3.7353125 -3.9375 3.6875 C-5.02417969 3.63078125 -6.11085938 3.5740625 -7.23046875 3.515625 C-8.06191406 3.48984375 -8.89335938 3.4640625 -9.75 3.4375 C-9.75 4.7575 -9.75 6.0775 -9.75 7.4375 C-10.41 7.4375 -11.07 7.4375 -11.75 7.4375 C-11.75 5.4575 -11.75 3.4775 -11.75 1.4375 C-7.83932297 0.88863305 -3.92224489 0.45759524 0 0 Z " fill="#253B44" transform="translate(645.75,145.5625)"/>
<path d="M0 0 C0.33 0 0.66 0 1 0 C1 22.11 1 44.22 1 67 C0.67 67 0.34 67 0 67 C-0.01981934 66.06728271 -0.03963867 65.13456543 -0.06005859 64.17358398 C-0.13853043 60.68635635 -0.22523514 57.19952938 -0.31738281 53.71264648 C-0.35547489 52.20849377 -0.39036092 50.70425608 -0.421875 49.19995117 C-0.46795895 47.02752477 -0.52587654 44.85567345 -0.5859375 42.68359375 C-0.6173584 41.37962646 -0.6487793 40.07565918 -0.68115234 38.73217773 C-1.00651274 34.92376703 -1.88282088 31.64458162 -3 28 C-3.125 25.0625 -3.125 25.0625 -3 23 C-2.34 23.33 -1.68 23.66 -1 24 C-0.67 16.08 -0.34 8.16 0 0 Z " fill="#345868" transform="translate(16,95)"/>
<path d="M0 0 C9.15392652 0.28089666 18.00527476 2.59827408 24.48828125 9.40234375 C29.4716137 15.6031363 31.75503565 20.1528409 31.4375 28.25 C31.1075 28.25 30.7775 28.25 30.4375 28.25 C30.29054688 27.6209375 30.14359375 26.991875 29.9921875 26.34375 C27.59978234 17.21411192 23.73916271 11.1297407 15.5625 6.2578125 C10.59256278 3.90074669 6.03901849 2.96029705 0.5625 2.625 C-0.58992187 2.55023438 -1.74234375 2.47546875 -2.9296875 2.3984375 C-4.23292969 2.32496094 -4.23292969 2.32496094 -5.5625 2.25 C-3.5625 0.25 -3.5625 0.25 0 0 Z " fill="#253C44" transform="translate(595.5625,98.75)"/>
<path d="M0 0 C5.43820259 0.43505621 8.88517398 1.34237687 13 5 C16.90963009 10.66425323 17.46762916 15.81268653 16.5625 22.53515625 C15.89598221 25.45580017 14.86353737 27.65032245 13 30 C12.67 29.01 12.34 28.02 12 27 C12.33 26.34 12.66 25.68 13 25 C13.17721577 22.54512577 13.27736821 20.14438336 13.3125 17.6875 C13.36857422 15.71330078 13.36857422 15.71330078 13.42578125 13.69921875 C12.93491865 9.43456849 12.08149521 7.92821329 9 5 C6.69153504 3.58983878 6.69153504 3.58983878 4.25 2.6875 C3.45078125 2.36136719 2.6515625 2.03523437 1.828125 1.69921875 C0.92320312 1.35310547 0.92320312 1.35310547 0 1 C0 0.67 0 0.34 0 0 Z " fill="#2C414D" transform="translate(675,130)"/>
<path d="M0 0 C0.33 0 0.66 0 1 0 C1.01981934 0.64549805 1.03963867 1.29099609 1.06005859 1.95605469 C1.15546328 4.88777221 1.26507971 7.81879232 1.375 10.75 C1.4059375 11.76578125 1.436875 12.7815625 1.46875 13.828125 C1.52675781 15.29765625 1.52675781 15.29765625 1.5859375 16.796875 C1.6173584 17.69760742 1.6487793 18.59833984 1.68115234 19.52636719 C2.01499406 22.1163245 2.72522975 23.74348253 4 26 C4.33 26.845625 4.66 27.69125 5 28.5625 C5.98451106 31.19059626 5.98451106 31.19059626 8 34 C7.67 34.99 7.34 35.98 7 37 C6.02969365 35.65438648 5.07437225 34.29796406 4.125 32.9375 C3.59132812 32.18339844 3.05765625 31.42929688 2.5078125 30.65234375 C-1.07862435 24.34355976 -1.29048381 18.23918092 -1.1875 11.1875 C-1.18685547 10.32962891 -1.18621094 9.47175781 -1.18554688 8.58789062 C-1.14089311 2.28178621 -1.14089311 2.28178621 0 0 Z " fill="#263744" transform="translate(230,111)"/>
<path d="M0 0 C2.30937049 2.14408751 4.21050211 4.41032013 6 7 C5.67 7.66 5.34 8.32 5 9 C4.484375 8.2575 3.96875 7.515 3.4375 6.75 C-0.44464716 2.37014166 -5.44190863 -0.64419086 -11.3828125 -1.23828125 C-17.51613578 -1.40428288 -21.79609334 -0.69179074 -27.22265625 2.22265625 C-27.80917969 2.47917969 -28.39570313 2.73570313 -29 3 C-29.66 2.67 -30.32 2.34 -31 2 C-29.75443908 1.18071114 -28.50333365 0.36984814 -27.25 -0.4375 C-26.20585937 -1.11619141 -26.20585937 -1.11619141 -25.140625 -1.80859375 C-17.16683313 -6.24656185 -7.56319761 -4.44065917 0 0 Z " fill="#243941" transform="translate(270,94)"/>
<path d="M0 0 C0.33 0 0.66 0 1 0 C1.33 4.62 1.66 9.24 2 14 C9.92 14 17.84 14 26 14 C22.64880481 16.23413013 21.5822245 16.23847762 17.67578125 16.1953125 C16.13374023 16.18564453 16.13374023 16.18564453 14.56054688 16.17578125 C13.48869141 16.15902344 12.41683594 16.14226562 11.3125 16.125 C10.22904297 16.11597656 9.14558594 16.10695312 8.02929688 16.09765625 C5.35277052 16.07407452 2.67635759 16.03820336 0 16 C0 10.72 0 5.44 0 0 Z " fill="#1F333D" transform="translate(496,139)"/>
<path d="M0 0 C0.66 0.33 1.32 0.66 2 1 C2.05784708 5.12494151 2.09354407 9.24977944 2.125 13.375 C2.14175781 14.550625 2.15851562 15.72625 2.17578125 16.9375 C2.18222656 18.05898437 2.18867188 19.18046875 2.1953125 20.3359375 C2.20578613 21.37282715 2.21625977 22.4097168 2.22705078 23.47802734 C2 26 2 26 0 28 C-0.81393517 25.14152758 -1.12830714 22.59761568 -1.1328125 19.62890625 C-1.13410156 18.80712891 -1.13539062 17.98535156 -1.13671875 17.13867188 C-1.13285156 16.28853516 -1.12898437 15.43839844 -1.125 14.5625 C-1.12886719 13.71623047 -1.13273438 12.86996094 -1.13671875 11.99804688 C-1.13025437 7.87054048 -1.041272 4.02459894 0 0 Z " fill="#2D4F57" transform="translate(14,93)"/>
<path d="M0 0 C0.66 0 1.32 0 2 0 C2 5.61 2 11.22 2 17 C-3.28 17 -8.56 17 -14 17 C-13.67 14.69 -13.34 12.38 -13 10 C-12.67 10 -12.34 10 -12 10 C-12 11.65 -12 13.3 -12 15 C-8.04 15 -4.08 15 0 15 C0 10.05 0 5.1 0 0 Z " fill="#263D47" transform="translate(468,151)"/>
<path d="M0 0 C2 2.5 2 2.5 4 5 C5.11375 6.3303125 5.11375 6.3303125 6.25 7.6875 C8 10 8 10 8 12 C8.55945313 12.268125 9.11890625 12.53625 9.6953125 12.8125 C12.17530775 14.09032806 14.50741672 15.52487023 16.875 17 C20.50214605 19.19989628 23.86682281 20.91232179 28 22 C28 22.33 28 22.66 28 23 C19.70326708 22.6927136 13.63102507 19.49788749 7.65625 13.7421875 C0 5.33695652 0 5.33695652 0 0 Z " fill="#243942" transform="translate(218,145)"/>
<path d="M0 0 C0 3 0 3 -1.3984375 4.71875 C-9.94972255 12.42504641 -18.78142433 13.44099881 -30 14 C-30.33 13.01 -30.66 12.02 -31 11 C-30.10539063 10.97421875 -29.21078125 10.9484375 -28.2890625 10.921875 C-16.49195279 10.36849246 -8.58708251 8.2137311 0 0 Z " fill="#2E4249" transform="translate(622,157)"/>
<path d="M0 0 C0.66 0.33 1.32 0.66 2 1 C-5.37505983 7.68364797 -14.02576929 9.13148485 -23.75 9.1875 C-24.87921875 9.20167969 -26.0084375 9.21585938 -27.171875 9.23046875 C-30 9 -30 9 -32 7 C-30.88882813 6.96261719 -29.77765625 6.92523438 -28.6328125 6.88671875 C-18.12841138 6.45435136 -9.11782892 5.69864308 0 0 Z " fill="#293D45" transform="translate(279,161)"/>
<path d="M0 0 C0.99 0.4021875 0.99 0.4021875 2 0.8125 C2.99 1.204375 3.98 1.59625 5 2 C5.59296875 2.26425781 6.1859375 2.52851563 6.796875 2.80078125 C15.72599364 6.56886932 23.05290907 5.13801936 32 2 C29.57193838 5.64209244 27.08576321 6.82574522 23 8 C14.57743985 8.67923872 6.64753878 7.45439079 0 2 C0 1.34 0 0.68 0 0 Z " fill="#243942" transform="translate(239,148)"/>
<path d="M0 0 C3.90381822 3.90381822 3.56244183 5.66179036 4 11 C-0.95 11 -5.9 11 -11 11 C-11.33 9.68 -11.66 8.36 -12 7 C-10.20793453 7.14084796 -8.41635083 7.28783701 -6.625 7.4375 C-5.12839844 7.55931641 -5.12839844 7.55931641 -3.6015625 7.68359375 C-1 8 -1 8 1 9 C0.67 6.03 0.34 3.06 0 0 Z " fill="#293E46" transform="translate(687,112)"/>
<path d="M0 0 C0.495 1.485 0.495 1.485 1 3 C-11.05023529 3.11317227 -22.98785879 3.03330247 -35 2 C-35 1.67 -35 1.34 -35 1 C-23.32446893 0.37160039 -11.69591188 -0.17691295 0 0 Z " fill="#1D4650" transform="translate(80,181)"/>
<path d="M0 0 C2.54076424 2.39268289 4.53985956 5.01944151 6.625 7.8125 C10.00020084 12.09232953 13.3467993 14.97553587 18.01953125 17.74609375 C19.97471422 18.98399066 21.4344203 20.30601313 23 22 C14.91923478 21.49495217 8.0743965 13.73218863 3 8 C0 3.74193548 0 3.74193548 0 0 Z " fill="#293F4A" transform="translate(52,134)"/>
<path d="M0 0 C2.42969368 2.42969368 3.36785215 4.89869388 4.70703125 8.02734375 C7.11565029 11.70212507 10.13779004 12.81098094 14.33203125 13.73046875 C15.48058594 13.88128906 16.62914062 14.03210938 17.8125 14.1875 C18.97394531 14.34605469 20.13539063 14.50460938 21.33203125 14.66796875 C22.21246094 14.77753906 23.09289062 14.88710937 24 15 C20.20991318 17.52672455 18.50802658 17.44341245 14 17 C8.1686424 15.05252574 4.32744489 12.14241483 1 7 C0.1875 3.125 0.1875 3.125 0 0 Z " fill="#1F363E" transform="translate(580,141)"/>
<path d="M0 0 C0.33 0 0.66 0 1 0 C1.17015625 0.81984375 1.3403125 1.6396875 1.515625 2.484375 C1.75796875 3.56203125 2.0003125 4.6396875 2.25 5.75 C2.59804688 7.35101563 2.59804688 7.35101563 2.953125 8.984375 C4.38844137 13.11894304 6.41578411 15.06334681 10.140625 17.265625 C11.18476562 17.75289062 11.18476562 17.75289062 12.25 18.25 C13.30960938 18.75273437 13.30960938 18.75273437 14.390625 19.265625 C14.92171875 19.50796875 15.4528125 19.7503125 16 20 C13.589802 20.86616491 12.42372482 21.1663451 10 20.21484375 C5.54259199 17.36802262 2.24346007 14.95430766 0 10 C-0.30256173 6.63652214 -0.23945191 3.36562967 0 0 Z " fill="#21353E" transform="translate(636,117)"/>
<path d="M0 0 C0.99 0.66 1.98 1.32 3 2 C-4.92 2.495 -4.92 2.495 -13 3 C-13 3.66 -13 4.32 -13 5 C-15.31 5 -17.62 5 -20 5 C-20 4.34 -20 3.68 -20 3 C-13.46122868 0.94670359 -6.91080497 -1.1086083 0 0 Z " fill="#283D47" transform="translate(667,99)"/>
<path d="M0 0 C0.33 0 0.66 0 1 0 C1.33 6.93 1.66 13.86 2 21 C5.3 21 8.6 21 12 21 C12 21.33 12 21.66 12 22 C10.02090602 22.02686553 8.04171029 22.04633375 6.0625 22.0625 C4.96035156 22.07410156 3.85820313 22.08570312 2.72265625 22.09765625 C0 22 0 22 -1 21 C-1.43376668 13.97042823 -0.84737188 6.97568637 0 0 Z " fill="#78A8AD" transform="translate(69,86)"/>
<path d="M0 0 C1.39456452 0.00667256 2.78911118 0.01863093 4.18359375 0.03515625 C4.89451172 0.03966797 5.60542969 0.04417969 6.33789062 0.04882812 C8.09899388 0.06064761 9.86005411 0.07858362 11.62109375 0.09765625 C11.29109375 0.75765625 10.96109375 1.41765625 10.62109375 2.09765625 C6.33109375 2.09765625 2.04109375 2.09765625 -2.37890625 2.09765625 C-2.37890625 7.37765625 -2.37890625 12.65765625 -2.37890625 18.09765625 C-2.70890625 18.09765625 -3.03890625 18.09765625 -3.37890625 18.09765625 C-3.57274804 15.2854592 -3.75927228 12.47311429 -3.94140625 9.66015625 C-3.99748047 8.85771484 -4.05355469 8.05527344 -4.11132812 7.22851562 C-4.24053575 5.18703514 -4.31403355 3.14219256 -4.37890625 1.09765625 C-3.37890625 0.09765625 -3.37890625 0.09765625 0 0 Z " fill="#16242C" transform="translate(703.37890625,76.90234375)"/>
<path d="M0 0 C5.89936693 0.36118573 9.70950159 1.85818223 14 6 C16.89223407 9.725878 18.58306399 13.18972205 18 18 C16.9172437 16.37586556 15.84686536 14.74165041 14.8515625 13.0625 C10.85375624 6.34007419 7.16356611 3.89297862 0 1 C0 0.67 0 0.34 0 0 Z " fill="#20343D" transform="translate(450,101)"/>
<path d="M0 0 C-1 3 -1 3 -3.1171875 4.16796875 C-9.94701048 6.69287498 -15.73801144 7.50567038 -23 7 C-23 6.34 -23 5.68 -23 5 C-22.154375 4.97421875 -21.30875 4.9484375 -20.4375 4.921875 C-13.37244657 4.56862233 -6.17507248 0 0 0 Z " fill="#283D47" transform="translate(451,163)"/>
<path d="M0 0 C2.97 0 5.94 0 9 0 C9.33 0.99 9.66 1.98 10 3 C7.03 3 4.06 3 1 3 C0.7525 3.7425 0.505 4.485 0.25 5.25 C-1.09147301 8.20124062 -2.60905526 9.84814974 -5 12 C-4.05468332 7.58188835 -2.06655995 3.99979345 0 0 Z " fill="#243740" transform="translate(277,138)"/>
<path d="M0 0 C0.33 0.66 0.66 1.32 1 2 C-0.37285156 2.14695312 -0.37285156 2.14695312 -1.7734375 2.296875 C-3.55621094 2.52117187 -3.55621094 2.52117187 -5.375 2.75 C-6.55835938 2.88921875 -7.74171875 3.0284375 -8.9609375 3.171875 C-12.10610436 3.66120632 -12.10610436 3.66120632 -13.28125 6.03125 C-13.5184375 6.6809375 -13.755625 7.330625 -14 8 C-16.125 8.75 -16.125 8.75 -18 9 C-16.73317448 5.09395463 -15.56716435 3.09833197 -12 1 C-8.18063853 -0.50046344 -4.03779954 -0.06729666 0 0 Z " fill="#263B44" transform="translate(446,111)"/>
<path d="M0 0 C0.99 0.33 1.98 0.66 3 1 C2.48050781 1.40089844 1.96101563 1.80179688 1.42578125 2.21484375 C-3.88189912 6.54143718 -7.08480375 10.81922334 -10 17 C-10.6640625 15.28125 -10.6640625 15.28125 -11 13 C-8.59879002 7.87260426 -4.89621692 2.91126411 0 0 Z " fill="#2D454F" transform="translate(58,35)"/>
<path d="M0 0 C6.69679193 0.29116487 11.6366926 3.05841029 17 7 C17.99 8.485 17.99 8.485 19 10 C15.44270343 10 14.58395849 9.22378835 11.75 7.1875 C7.93711712 4.54781186 4.3224292 2.65539842 0 1 C0 0.67 0 0.34 0 0 Z " fill="#233A44" transform="translate(527,79)"/>
<path d="M0 0 C0.33 0 0.66 0 1 0 C1.20625 1.0725 1.4125 2.145 1.625 3.25 C3.30399478 7.82907667 4.66988631 8.87579328 9 11 C12.73225344 11.79682803 12.73225344 11.79682803 16 12 C16 12.33 16 12.66 16 13 C7.10535406 13.62176166 7.10535406 13.62176166 3 11.3125 C0.88655335 8.86882731 -0.21712025 7.13151899 -1 4 C-0.625 1.6875 -0.625 1.6875 0 0 Z " fill="#253744" transform="translate(318,143)"/>
<path d="M0 0 C3.3 0 6.6 0 10 0 C10.33292585 4.24480464 10.43885872 6.35542625 8 9.9375 C7.34 10.618125 6.68 11.29875 6 12 C6.48578543 8.87709365 6.9986012 6.00419641 8 3 C5.36 2.34 2.72 1.68 0 1 C0 0.67 0 0.34 0 0 Z " fill="#304751" transform="translate(92,161)"/>
<path d="M0 0 C0.66 0 1.32 0 2 0 C0.67474436 5.06006699 -1.34390181 8.25887627 -5 12 C-7.8125 13.375 -7.8125 13.375 -10 14 C-10 13.34 -10 12.68 -10 12 C-8.34997172 10.64613064 -6.6825613 9.31321858 -5 8 C-4.67 7.34 -4.34 6.68 -4 6 C-3.34 6 -2.68 6 -2 6 C-1.34 4.02 -0.68 2.04 0 0 Z " fill="#23383F" transform="translate(538,137)"/>
<path d="M0 0 C5.43629023 0.43490322 8.7128221 1.6101384 13 5 C15 8 15 8 14.625 10.1875 C14.41875 10.785625 14.2125 11.38375 14 12 C13.54625 11.113125 13.0925 10.22625 12.625 9.3125 C9.67163206 4.77466094 4.81592109 3.07709574 0 1 C0 0.67 0 0.34 0 0 Z " fill="#23373E" transform="translate(675,130)"/>
<path d="M0 0 C3.63 0 7.26 0 11 0 C11.33 0.99 11.66 1.98 12 3 C7.71 3 3.42 3 -1 3 C-0.67 2.01 -0.34 1.02 0 0 Z " fill="#9DADB3" transform="translate(113,181)"/>
<path d="M0 0 C4.06904921 0.5483116 6.50942964 1.74888865 9.75 4.25 C10.52859375 4.83265625 11.3071875 5.4153125 12.109375 6.015625 C14.32059978 8.33649729 14.67480092 9.85640893 15 13 C11 9 11 9 9.1875 7 C6.3549336 4.41022501 3.37761078 2.81871349 0 1 C0 0.67 0 0.34 0 0 Z " fill="#2B414C" transform="translate(146,33)"/>
<path d="M0 0 C0.33 0 0.66 0 1 0 C1.09796875 0.58007812 1.1959375 1.16015625 1.296875 1.7578125 C2.32405553 7.12394527 3.70938188 10.64789217 7 15 C7.33 15.66 7.66 16.32 8 17 C6.25 16.9375 6.25 16.9375 4 16 C-0.01161584 10.65117888 -0.53671217 6.57472413 0 0 Z " fill="#1E3239" transform="translate(303,147)"/>
<path d="M0 0 C0.66 0 1.32 0 2 0 C2.05402274 2.10388569 2.09280256 4.20816714 2.125 6.3125 C2.14820313 7.48425781 2.17140625 8.65601563 2.1953125 9.86328125 C2 13 2 13 0 16 C-0.19389096 13.5211787 -0.38040123 11.04219069 -0.5625 8.5625 C-0.61857422 7.85544922 -0.67464844 7.14839844 -0.73242188 6.41992188 C-0.86190993 4.61572163 -0.93521608 2.80768048 -1 1 C-0.67 0.67 -0.34 0.34 0 0 Z " fill="#1B3037" transform="translate(344,130)"/>
<path d="M0 0 C0 3 0 3 -1.57421875 4.7890625 C-2.27160156 5.39492187 -2.96898437 6.00078125 -3.6875 6.625 C-4.37199219 7.23601562 -5.05648437 7.84703125 -5.76171875 8.4765625 C-8.21465149 10.14609787 -10.08138069 10.62175512 -13 11 C-13 10.34 -13 9.68 -13 9 C-12.39671875 8.68546875 -11.7934375 8.3709375 -11.171875 8.046875 C-6.90645359 5.76281063 -3.18497204 3.73888023 0 0 Z " fill="#243B43" transform="translate(622,157)"/>
<path d="M0 0 C3.66666667 3.66666667 7.33333333 7.33333333 11 11 C10.67 11.66 10.34 12.32 10 13 C5.99215825 10.02274613 2.9670071 6.98426667 0 3 C0 2.01 0 1.02 0 0 Z " fill="#2B414C" transform="translate(61,131)"/>
<path d="M0 0 C0.33 0 0.66 0 1 0 C1.46656194 9.86692101 1.46656194 9.86692101 -0.3125 14.1875 C-0.869375 14.785625 -1.42625 15.38375 -2 16 C-2.99 16 -3.98 16 -5 16 C-4.0409375 14.5459375 -4.0409375 14.5459375 -3.0625 13.0625 C-0.61648472 8.8446362 -0.21790511 4.80480758 0 0 Z " fill="#20363E" transform="translate(454,137)"/>
<path d="M0 0 C3.16115776 1.36983503 3.9927092 1.9890638 6 5 C6.07905064 7.33199388 6.08798769 9.66832622 6 12 C5.34 12 4.68 12 4 12 C3.79503906 11.30132812 3.59007812 10.60265625 3.37890625 9.8828125 C3.10949219 8.97273438 2.84007812 8.06265625 2.5625 7.125 C2.16224609 5.76761719 2.16224609 5.76761719 1.75390625 4.3828125 C1.07386174 2.01724619 1.07386174 2.01724619 0 0 Z " fill="#223840" transform="translate(449,114)"/>
<path d="M0 0 C0 0.33 0 0.66 0 1 C-0.92232422 1.16435547 -0.92232422 1.16435547 -1.86328125 1.33203125 C-2.67152344 1.49058594 -3.47976563 1.64914063 -4.3125 1.8125 C-5.51326172 2.03873047 -5.51326172 2.03873047 -6.73828125 2.26953125 C-9.25430815 3.08213407 -10.22594766 4.10108767 -12 6 C-12.66 6 -13.32 6 -14 6 C-12.84472689 2.53418066 -12.36913774 2.32129495 -9.25 0.75 C-5.80837551 -0.88415264 -3.69524975 -1.38571866 0 0 Z " fill="#22363F" transform="translate(403,101)"/>
<path d="M0 0 C1.98738098 0.01761863 3.97253109 0.16698176 5.953125 0.33203125 C3.90021952 1.35848399 1.85336597 2.37763538 -0.234375 3.33203125 C-2.21889023 4.20347694 -2.21889023 4.20347694 -3.046875 6.33203125 C-4.036875 6.00203125 -5.026875 5.67203125 -6.046875 5.33203125 C-3.15469741 0.51173527 -3.15469741 0.51173527 0 0 Z " fill="#304557" transform="translate(61.046875,230.66796875)"/>
<path d="M0 0 C0.66 0.33 1.32 0.66 2 1 C1.0919838 2.13199353 0.17316174 3.25532363 -0.75 4.375 C-1.26046875 5.00148437 -1.7709375 5.62796875 -2.296875 6.2734375 C-4.08199481 8.08312318 -5.67949644 9.00117455 -8 10 C-6.34908222 5.70761377 -3.26245434 3.1206085 0 0 Z " fill="#293F4A" transform="translate(147,134)"/>
<path d="M0 0 C0.33 0 0.66 0 1 0 C1.05429959 1.74965358 1.09292823 3.49979787 1.125 5.25 C1.14820313 6.22453125 1.17140625 7.1990625 1.1953125 8.203125 C0.99862781 11.0196498 0.44568916 12.60949036 -1 15 C-2 8.25 -2 8.25 -2 6 C-1.34 6 -0.68 6 0 6 C0 4.02 0 2.04 0 0 Z " fill="#1F313A" transform="translate(371,125)"/>
<path d="M0 0 C0.99 0 1.98 0 3 0 C3.33 2.31 3.66 4.62 4 7 C4.99 7 5.98 7 7 7 C6.01 8.485 6.01 8.485 5 10 C3.68 10 2.36 10 1 10 C1.33 7.03 1.66 4.06 2 1 C1.34 0.67 0.68 0.34 0 0 Z " fill="#2C444E" transform="translate(383,101)"/>
<path d="M0 0 C2.48660455 0.3878678 3.72345219 0.70962479 5.484375 2.55859375 C5.90203125 3.17863281 6.3196875 3.79867187 6.75 4.4375 C7.17796875 5.05496094 7.6059375 5.67242187 8.046875 6.30859375 C9 8 9 8 9 10 C8.34 10 7.68 10 7 10 C5.61558 8.03501678 4.28796166 6.02951535 3 4 C2.01133494 2.65824027 1.0161846 1.32103998 0 0 Z " fill="#2A3F4A" transform="translate(188,80)"/>
<path d="M0 0 C0.99 0.33 1.98 0.66 3 1 C3 4.63 3 8.26 3 12 C0.97649676 8.96474514 0.67875982 7.80573798 0.375 4.3125 C0.30023438 3.50425781 0.22546875 2.69601563 0.1484375 1.86328125 C0.09945313 1.24839844 0.05046875 0.63351563 0 0 Z " fill="#21626B" transform="translate(13,118)"/>
<path d="M0 0 C0.99 0.33 1.98 0.66 3 1 C2.2575 1.721875 1.515 2.44375 0.75 3.1875 C-1.69290515 5.68592573 -3.8681047 8.23643202 -6 11 C-5.62671065 5.64951939 -4.0042343 3.49087093 0 0 Z " fill="#1D3139" transform="translate(643,105)"/>
<path d="M0 0 C5.01113235 1.4317521 6.94469549 3.98445693 10 8 C9.67 8.66 9.34 9.32 9 10 C8.443125 9.278125 7.88625 8.55625 7.3125 7.8125 C5.02090666 5.02542701 2.58540143 2.51358472 0 0 Z " fill="#1C2E35" transform="translate(266,93)"/>
<path d="M0 0 C0.66 0.33 1.32 0.66 2 1 C2.40729228 3.32156597 2.74438677 5.6568787 3 8 C2.01 8 1.02 8 0 8 C-0.38063221 5.6739143 -0.71269945 3.33944736 -1 1 C-0.67 0.67 -0.34 0.34 0 0 Z " fill="#304950" transform="translate(173,78)"/>
<path d="M0 0 C0.66 0.33 1.32 0.66 2 1 C2 1.66 2 2.32 2 3 C-1.42689636 4.14229879 -3.61102218 3.90861076 -7.1875 3.5625 C-8.81751953 3.40974609 -8.81751953 3.40974609 -10.48046875 3.25390625 C-11.72763672 3.12822266 -11.72763672 3.12822266 -13 3 C-13 2.67 -13 2.34 -13 2 C-12.14535156 1.93941406 -11.29070312 1.87882812 -10.41015625 1.81640625 C-8.75306641 1.69072266 -8.75306641 1.69072266 -7.0625 1.5625 C-5.96035156 1.48128906 -4.85820312 1.40007812 -3.72265625 1.31640625 C-1.08890097 1.29581916 -1.08890097 1.29581916 0 0 Z " fill="#172A30" transform="translate(428,120)"/>
<path d="M0 0 C0.66 0.33 1.32 0.66 2 1 C2 4.3 2 7.6 2 11 C1.67 10.01 1.34 9.02 1 8 C0.34 7.67 -0.32 7.34 -1 7 C-0.67 4.69 -0.34 2.38 0 0 Z " fill="#1C4B56" transform="translate(14,93)"/>
<path d="M0 0 C0.66 0 1.32 0 2 0 C2.33 2.97 2.66 5.94 3 9 C2.34 9 1.68 9 1 9 C0.67 6.03 0.34 3.06 0 0 Z " fill="#293C49" transform="translate(155,54)"/>
<path d="M0 0 C0.66 0.33 1.32 0.66 2 1 C-0.475 5.455 -0.475 5.455 -3 10 C-4 6 -4 6 -2.0625 2.75 C-1.381875 1.8425 -0.70125 0.935 0 0 Z " fill="#253C46" transform="translate(51,42)"/>
<path d="M0 0 C1.98 0.66 3.96 1.32 6 2 C6 2.99 6 3.98 6 5 C4.02 5 2.04 5 0 5 C0 3.35 0 1.7 0 0 Z " fill="#23354B" transform="translate(276,104)"/>
<path d="M0 0 C0.66 0.33 1.32 0.66 2 1 C1.25 6.75 1.25 6.75 -1 9 C-1.625 6.1875 -1.625 6.1875 -2 3 C-1.34 2.01 -0.68 1.02 0 0 Z " fill="#395E6B" transform="translate(92,32)"/>
<path d="M0 0 C2.97 0 5.94 0 9 0 C6 3 6 3 3.3125 3.1875 C2.1678125 3.0946875 2.1678125 3.0946875 1 3 C0.67 2.01 0.34 1.02 0 0 Z " fill="#46606A" transform="translate(86,150)"/>
<path d="M0 0 C2.91517292 1.07401108 4.77810176 1.77810176 7 4 C6.67 4.99 6.34 5.98 6 7 C4.02 4.69 2.04 2.38 0 0 Z " fill="#223842" transform="translate(679,104)"/>
<path d="M0 0 C4.95 0 9.9 0 15 0 C15 0.33 15 0.66 15 1 C10.05 1 5.1 1 0 1 C0 0.67 0 0.34 0 0 Z " fill="#89B1B1" transform="translate(126,109)"/>
<path d="M0 0 C2.475 0.495 2.475 0.495 5 1 C3.02 1.99 3.02 1.99 1 3 C0.67 2.01 0.34 1.02 0 0 Z " fill="#52595E" transform="translate(622,140)"/>
<path d="M0 0 C1.98 0 3.96 0 6 0 C6 0.33 6 0.66 6 1 C4.02 1 2.04 1 0 1 C0 0.67 0 0.34 0 0 Z " fill="#9F9FA8" transform="translate(78,109)"/>
<path d="M0 0 C1.65 0 3.3 0 5 0 C5 0.33 5 0.66 5 1 C3.35 1 1.7 1 0 1 C0 0.67 0 0.34 0 0 Z " fill="#6ED4D4" transform="translate(71,109)"/>
<path d="M0 0 C4 1 4 1 4 1 Z " fill="#6E7B90" transform="translate(94,164)"/>
<path d="M0 0 C4 1 4 1 4 1 Z " fill="#2A2A2A" transform="translate(499,151)"/>
<path d="M0 0 C0.99 0.33 1.98 0.66 3 1 C2.01 1 1.02 1 0 1 C0 0.67 0 0.34 0 0 Z " fill="#2A2A2A" transform="translate(721,141)"/>
<path d="M0 0 C1 4 1 4 1 4 Z " fill="#5F9F9F" transform="translate(66,99)"/>
<path d="M0 0 C4 1 4 1 4 1 Z " fill="#747474" transform="translate(752,99)"/>
<path d="M0 0 C4 1 4 1 4 1 Z " fill="#35C9C9" transform="translate(69,44)"/>
<path d="M0 0 C0.66 0.66 1.32 1.32 2 2 C1.34 2 0.68 2 0 2 C0 1.34 0 0.68 0 0 Z " fill="#D4D4D4" transform="translate(184,178)"/>
<path d="M0 0 C3 1 3 1 3 1 Z " fill="#000000" transform="translate(251,171)"/>
<path d="M0 0 C0.66 0 1.32 0 2 0 C1.67 0.66 1.34 1.32 1 2 C0.67 1.34 0.34 0.68 0 0 Z " fill="#000000" transform="translate(736,162)"/>
<path d="M0 0 C3 1 3 1 3 1 Z " fill="#2A2A2A" transform="translate(256,152)"/>
<path d="M0 0 C0.99 0.495 0.99 0.495 2 1 C1.01 1.495 1.01 1.495 0 2 C0 1.34 0 0.68 0 0 Z " fill="#314654" transform="translate(423,124)"/>
<path d="M0 0 C0.33 0.66 0.66 1.32 1 2 C0.34 1.67 -0.32 1.34 -1 1 C-0.67 0.67 -0.34 0.34 0 0 Z " fill="#2A2A2A" transform="translate(671,117)"/>
<path d="" fill="#000000" transform="translate(0,0)"/>
<path d="" fill="#545454" transform="translate(0,0)"/>
<path d="" fill="#1C1C1C" transform="translate(0,0)"/>
<path d="" fill="#2A2A2A" transform="translate(0,0)"/>
<path d="M0 0 C3 1 3 1 3 1 Z " fill="#464646" transform="translate(261,94)"/>
<path d="M0 0 C3 1 3 1 3 1 Z " fill="#1C1C1C" transform="translate(257,93)"/>
<path d="M0 0 C0.33 0.66 0.66 1.32 1 2 C0.34 1.67 -0.32 1.34 -1 1 C-0.67 0.67 -0.34 0.34 0 0 Z " fill="#46469B" transform="translate(184,91)"/>
<path d="M0 0 C0.66 0 1.32 0 2 0 C1.67 0.66 1.34 1.32 1 2 C0.67 1.34 0.34 0.68 0 0 Z " fill="#2AD4D4" transform="translate(142,44)"/>
<path d="M0 0 C0.66 0 1.32 0 2 0 C1.67 0.66 1.34 1.32 1 2 C0.67 1.34 0.34 0.68 0 0 Z " fill="#7F7F7F" transform="translate(120,43)"/>
<path d="" fill="#00FFFF" transform="translate(0,0)"/>
<path d="M0 0 C2 1 2 1 2 1 Z " fill="#3F3F3F" transform="translate(596,171)"/>
<path d="M0 0 C2 1 2 1 2 1 Z " fill="#3F3F3F" transform="translate(255,171)"/>
<path d="" fill="#2A2A2A" transform="translate(0,0)"/>
<path d="" fill="#3F3F3F" transform="translate(0,0)"/>
<path d="" fill="#000000" transform="translate(0,0)"/>
<path d="" fill="#000000" transform="translate(0,0)"/>
<path d="" fill="#7F7F7F" transform="translate(0,0)"/>
<path d="M0 0 C2 1 2 1 2 1 Z " fill="#4A6A7F" transform="translate(262,151)"/>
<path d="" fill="#3F3F3F" transform="translate(0,0)"/>
<path d="" fill="#3F3F3F" transform="translate(0,0)"/>
<path d="M0 0 C2 1 2 1 2 1 Z " fill="#193333" transform="translate(446,140)"/>
<path d="" fill="#3F3FBF" transform="translate(0,0)"/>
<path d="" fill="#00FFFF" transform="translate(0,0)"/>
<path d="" fill="#0000FF" transform="translate(0,0)"/>
<path d="M0 0 C2 1 2 1 2 1 Z " fill="#000000" transform="translate(447,118)"/>
<path d="M0 0 C2 1 2 1 2 1 Z " fill="#000000" transform="translate(596,114)"/>
<path d="" fill="#1F3F3F" transform="translate(0,0)"/>
<path d="M0 0 C2 1 2 1 2 1 Z " fill="#3F3F3F" transform="translate(233,109)"/>
<path d="M0 0 C2 1 2 1 2 1 Z " fill="#94B4B4" transform="translate(89,109)"/>
<path d="M0 0 C2 1 2 1 2 1 Z " fill="#000000" transform="translate(358,99)"/>
<path d="M0 0 C2 1 2 1 2 1 Z " fill="#3F3F3F" transform="translate(354,99)"/>
<path d="" fill="#2A2AD4" transform="translate(0,0)"/>
<path d="" fill="#3F3FBF" transform="translate(0,0)"/>
<path d="" fill="#5DA1A1" transform="translate(0,0)"/>
<path d="M0 0 C2 1 2 1 2 1 Z " fill="#3FBFBF" transform="translate(73,45)"/>
<path d="M0 0 C2 1 2 1 2 1 Z " fill="#3333B2" transform="translate(147,31)"/>
<path d="" fill="#0000FF" transform="translate(0,0)"/>
<path d="" fill="#000000" transform="translate(0,0)"/>
<path d="" fill="#0000FF" transform="translate(0,0)"/>
<path d="" fill="#000000" transform="translate(0,0)"/>
<path d="" fill="#000000" transform="translate(0,0)"/>
<path d="" fill="#5555AA" transform="translate(0,0)"/>
<path d="" fill="#7F7F7F" transform="translate(0,0)"/>
<path d="" fill="#0000FF" transform="translate(0,0)"/>
<path d="" fill="#7F7F7F" transform="translate(0,0)"/>
<path d="" fill="#7F7F7F" transform="translate(0,0)"/>
<path d="" fill="#0000FF" transform="translate(0,0)"/>
<path d="" fill="#00FFFF" transform="translate(0,0)"/>
<path d="" fill="#000000" transform="translate(0,0)"/>
<path d="" fill="#000000" transform="translate(0,0)"/>
<path d="" fill="#000000" transform="translate(0,0)"/>
<path d="" fill="#000000" transform="translate(0,0)"/>
<path d="" fill="#000000" transform="translate(0,0)"/>
<path d="" fill="#000000" transform="translate(0,0)"/>
<path d="" fill="#7F7F7F" transform="translate(0,0)"/>
<path d="" fill="#000000" transform="translate(0,0)"/>
<path d="" fill="#000000" transform="translate(0,0)"/>
<path d="" fill="#7F7F7F" transform="translate(0,0)"/>
<path d="" fill="#00FFFF" transform="translate(0,0)"/>
<path d="" fill="#7F7F7F" transform="translate(0,0)"/>
<path d="" fill="#000000" transform="translate(0,0)"/>
<path d="" fill="#000000" transform="translate(0,0)"/>
<path d="" fill="#7F7F7F" transform="translate(0,0)"/>
<path d="" fill="#000000" transform="translate(0,0)"/>
<path d="" fill="#000000" transform="translate(0,0)"/>
<path d="" fill="#555555" transform="translate(0,0)"/>
<path d="" fill="#000000" transform="translate(0,0)"/>
<path d="" fill="#000000" transform="translate(0,0)"/>
<path d="" fill="#000000" transform="translate(0,0)"/>
<path d="" fill="#000000" transform="translate(0,0)"/>
<path d="" fill="#000000" transform="translate(0,0)"/>
<path d="" fill="#00FFFF" transform="translate(0,0)"/>
<path d="" fill="#0000FF" transform="translate(0,0)"/>
<path d="" fill="#000000" transform="translate(0,0)"/>
<path d="" fill="#7F7F7F" transform="translate(0,0)"/>
<path d="" fill="#007F7F" transform="translate(0,0)"/>
<path d="" fill="#336666" transform="translate(0,0)"/>
<path d="" fill="#000000" transform="translate(0,0)"/>
<path d="" fill="#7F7F7F" transform="translate(0,0)"/>
<path d="" fill="#00FFFF" transform="translate(0,0)"/>
<path d="" fill="#7F7F7F" transform="translate(0,0)"/>
<path d="" fill="#00FFFF" transform="translate(0,0)"/>
<path d="" fill="#7F7F7F" transform="translate(0,0)"/>
<path d="" fill="#00FFFF" transform="translate(0,0)"/>
<path d="" fill="#0000FF" transform="translate(0,0)"/>
<path d="" fill="#000000" transform="translate(0,0)"/>
<path d="" fill="#000000" transform="translate(0,0)"/>
<path d="" fill="#555555" transform="translate(0,0)"/>
<path d="" fill="#7F7F7F" transform="translate(0,0)"/>
<path d="" fill="#000000" transform="translate(0,0)"/>
<path d="" fill="#7F7F7F" transform="translate(0,0)"/>
<path d="" fill="#7F7F7F" transform="translate(0,0)"/>
<path d="" fill="#000000" transform="translate(0,0)"/>
<path d="" fill="#7F7F7F" transform="translate(0,0)"/>
<path d="" fill="#55AAAA" transform="translate(0,0)"/>
<path d="" fill="#000000" transform="translate(0,0)"/>
<path d="" fill="#555555" transform="translate(0,0)"/>
<path d="" fill="#000000" transform="translate(0,0)"/>
<path d="" fill="#000000" transform="translate(0,0)"/>
<path d="" fill="#7F7F7F" transform="translate(0,0)"/>
<path d="" fill="#000000" transform="translate(0,0)"/>
<path d="" fill="#00FFFF" transform="translate(0,0)"/>
<path d="" fill="#000000" transform="translate(0,0)"/>
<path d="" fill="#000000" transform="translate(0,0)"/>
<path d="" fill="#000000" transform="translate(0,0)"/>
<path d="" fill="#555555" transform="translate(0,0)"/>
<path d="" fill="#7F7F7F" transform="translate(0,0)"/>
<path d="" fill="#000000" transform="translate(0,0)"/>
<path d="" fill="#7F7F7F" transform="translate(0,0)"/>
<path d="" fill="#000000" transform="translate(0,0)"/>
<path d="" fill="#000000" transform="translate(0,0)"/>
<path d="" fill="#000000" transform="translate(0,0)"/>
<path d="" fill="#00FFFF" transform="translate(0,0)"/>
<path d="" fill="#000000" transform="translate(0,0)"/>
<path d="" fill="#000000" transform="translate(0,0)"/>
<path d="" fill="#000000" transform="translate(0,0)"/>
<path d="" fill="#000000" transform="translate(0,0)"/>
<path d="" fill="#7F7F7F" transform="translate(0,0)"/>
<path d="" fill="#000000" transform="translate(0,0)"/>
<path d="" fill="#000000" transform="translate(0,0)"/>
<path d="" fill="#000000" transform="translate(0,0)"/>
<path d="" fill="#00FFFF" transform="translate(0,0)"/>
<path d="" fill="#000000" transform="translate(0,0)"/>
<path d="" fill="#000000" transform="translate(0,0)"/>
<path d="" fill="#555555" transform="translate(0,0)"/>
<path d="" fill="#000000" transform="translate(0,0)"/>
<path d="" fill="#000000" transform="translate(0,0)"/>
<path d="" fill="#000000" transform="translate(0,0)"/>
<path d="" fill="#7F7F7F" transform="translate(0,0)"/>
<path d="" fill="#555555" transform="translate(0,0)"/>
<path d="" fill="#000000" transform="translate(0,0)"/>
<path d="" fill="#000000" transform="translate(0,0)"/>
<path d="" fill="#000000" transform="translate(0,0)"/>
<path d="" fill="#7F7F7F" transform="translate(0,0)"/>
<path d="" fill="#000000" transform="translate(0,0)"/>
<path d="" fill="#7F7F7F" transform="translate(0,0)"/>
<path d="" fill="#7F7F7F" transform="translate(0,0)"/>
<path d="" fill="#0000FF" transform="translate(0,0)"/>
<path d="" fill="#000000" transform="translate(0,0)"/>
<path d="" fill="#000000" transform="translate(0,0)"/>
<path d="" fill="#00FFFF" transform="translate(0,0)"/>
<path d="" fill="#0000FF" transform="translate(0,0)"/>
<path d="" fill="#000000" transform="translate(0,0)"/>
<path d="" fill="#000000" transform="translate(0,0)"/>
<path d="" fill="#0000FF" transform="translate(0,0)"/>
<path d="" fill="#7F7F7F" transform="translate(0,0)"/>
<path d="" fill="#00FFFF" transform="translate(0,0)"/>
<path d="" fill="#00FFFF" transform="translate(0,0)"/>
<path d="" fill="#000000" transform="translate(0,0)"/>
<path d="" fill="#000000" transform="translate(0,0)"/>
<path d="" fill="#7F7F7F" transform="translate(0,0)"/>
<path d="" fill="#000000" transform="translate(0,0)"/>
<path d="" fill="#000000" transform="translate(0,0)"/>
<path d="" fill="#3F3F7F" transform="translate(0,0)"/>
<path d="" fill="#000000" transform="translate(0,0)"/>
<path d="" fill="#3F7F7F" transform="translate(0,0)"/>
<path d="" fill="#7F7F7F" transform="translate(0,0)"/>
<path d="" fill="#000000" transform="translate(0,0)"/>
<path d="" fill="#000000" transform="translate(0,0)"/>
<path d="" fill="#000000" transform="translate(0,0)"/>
<path d="" fill="#7F7F7F" transform="translate(0,0)"/>
<path d="" fill="#000000" transform="translate(0,0)"/>
<path d="" fill="#7F7F7F" transform="translate(0,0)"/>
<path d="" fill="#7F7F7F" transform="translate(0,0)"/>
<path d="" fill="#7F7F7F" transform="translate(0,0)"/>
<path d="" fill="#555555" transform="translate(0,0)"/>
<path d="" fill="#000000" transform="translate(0,0)"/>
<path d="" fill="#7F7F7F" transform="translate(0,0)"/>
<path d="" fill="#000000" transform="translate(0,0)"/>
<path d="" fill="#486D6D" transform="translate(0,0)"/>
<path d="" fill="#7F7F7F" transform="translate(0,0)"/>
<path d="" fill="#000000" transform="translate(0,0)"/>
<path d="" fill="#000000" transform="translate(0,0)"/>
<path d="" fill="#000000" transform="translate(0,0)"/>
<path d="" fill="#3F7F7F" transform="translate(0,0)"/>
<path d="" fill="#7F7F7F" transform="translate(0,0)"/>
<path d="" fill="#3F7F7F" transform="translate(0,0)"/>
<path d="" fill="#00FFFF" transform="translate(0,0)"/>
<path d="" fill="#7F7F7F" transform="translate(0,0)"/>
<path d="" fill="#7F7F7F" transform="translate(0,0)"/>
<path d="" fill="#000000" transform="translate(0,0)"/>
<path d="" fill="#7F7F7F" transform="translate(0,0)"/>
<path d="" fill="#0000FF" transform="translate(0,0)"/>
<path d="" fill="#000000" transform="translate(0,0)"/>
<path d="" fill="#000000" transform="translate(0,0)"/>
<path d="" fill="#FFFFFF" transform="translate(0,0)"/>
<path d="" fill="#00FFFF" transform="translate(0,0)"/>
<path d="" fill="#000000" transform="translate(0,0)"/>
<path d="" fill="#7F7F7F" transform="translate(0,0)"/>
<path d="" fill="#000000" transform="translate(0,0)"/>
<path d="" fill="#000000" transform="translate(0,0)"/>
<path d="" fill="#00FFFF" transform="translate(0,0)"/>
<path d="" fill="#000000" transform="translate(0,0)"/>
<path d="" fill="#555555" transform="translate(0,0)"/>
<path d="" fill="#000000" transform="translate(0,0)"/>
<path d="" fill="#7F7F7F" transform="translate(0,0)"/>
<path d="" fill="#000000" transform="translate(0,0)"/>
<path d="" fill="#000000" transform="translate(0,0)"/>
<path d="" fill="#0000FF" transform="translate(0,0)"/>
<path d="" fill="#000000" transform="translate(0,0)"/>
<path d="" fill="#000000" transform="translate(0,0)"/>
<path d="" fill="#000000" transform="translate(0,0)"/>
<path d="" fill="#7F7F7F" transform="translate(0,0)"/>
<path d="" fill="#000000" transform="translate(0,0)"/>
<path d="" fill="#7F7F7F" transform="translate(0,0)"/>
<path d="" fill="#000000" transform="translate(0,0)"/>
<path d="" fill="#0000FF" transform="translate(0,0)"/>
<path d="" fill="#7F7F7F" transform="translate(0,0)"/>
<path d="" fill="#7F7F7F" transform="translate(0,0)"/>
<path d="" fill="#7F7F7F" transform="translate(0,0)"/>
<path d="" fill="#7F7F7F" transform="translate(0,0)"/>
<path d="" fill="#000000" transform="translate(0,0)"/>
<path d="" fill="#000000" transform="translate(0,0)"/>
<path d="" fill="#000000" transform="translate(0,0)"/>
<path d="" fill="#7F7F7F" transform="translate(0,0)"/>
<path d="" fill="#000000" transform="translate(0,0)"/>
<path d="" fill="#7F7F7F" transform="translate(0,0)"/>
<path d="" fill="#7F7F7F" transform="translate(0,0)"/>
<path d="" fill="#000000" transform="translate(0,0)"/>
<path d="" fill="#000000" transform="translate(0,0)"/>
<path d="" fill="#000000" transform="translate(0,0)"/>
<path d="" fill="#555555" transform="translate(0,0)"/>
<path d="" fill="#7F7F7F" transform="translate(0,0)"/>
<path d="" fill="#000000" transform="translate(0,0)"/>
<path d="" fill="#000000" transform="translate(0,0)"/>
<path d="" fill="#000000" transform="translate(0,0)"/>
<path d="" fill="#000000" transform="translate(0,0)"/>
<path d="" fill="#000000" transform="translate(0,0)"/>
<path d="" fill="#555555" transform="translate(0,0)"/>
<path d="" fill="#000000" transform="translate(0,0)"/>
<path d="" fill="#000000" transform="translate(0,0)"/>
<path d="" fill="#000000" transform="translate(0,0)"/>
<path d="" fill="#7F7F7F" transform="translate(0,0)"/>
<path d="" fill="#0000FF" transform="translate(0,0)"/>
<path d="" fill="#3F3F7F" transform="translate(0,0)"/>
<path d="" fill="#000000" transform="translate(0,0)"/>
<path d="" fill="#7F7F7F" transform="translate(0,0)"/>
<path d="" fill="#000000" transform="translate(0,0)"/>
<path d="" fill="#000000" transform="translate(0,0)"/>
<path d="" fill="#555555" transform="translate(0,0)"/>
<path d="" fill="#000000" transform="translate(0,0)"/>
<path d="" fill="#000000" transform="translate(0,0)"/>
<path d="" fill="#00FFFF" transform="translate(0,0)"/>
<path d="" fill="#000000" transform="translate(0,0)"/>
<path d="" fill="#000000" transform="translate(0,0)"/>
<path d="" fill="#0000FF" transform="translate(0,0)"/>
<path d="" fill="#7F7F7F" transform="translate(0,0)"/>
<path d="" fill="#0000FF" transform="translate(0,0)"/>
<path d="" fill="#000000" transform="translate(0,0)"/>
<path d="" fill="#0000FF" transform="translate(0,0)"/>
<path d="" fill="#000000" transform="translate(0,0)"/>
<path d="" fill="#000000" transform="translate(0,0)"/>
<path d="" fill="#000000" transform="translate(0,0)"/>
<path d="" fill="#7F7F7F" transform="translate(0,0)"/>
<path d="" fill="#00FFFF" transform="translate(0,0)"/>
<path d="" fill="#7F7F7F" transform="translate(0,0)"/>
<path d="" fill="#00FFFF" transform="translate(0,0)"/>
<path d="" fill="#00FFFF" transform="translate(0,0)"/>
<path d="" fill="#7F7F7F" transform="translate(0,0)"/>
<path d="" fill="#0000FF" transform="translate(0,0)"/>
<path d="" fill="#7F7F7F" transform="translate(0,0)"/>
<path d="" fill="#00FFFF" transform="translate(0,0)"/>
<path d="" fill="#0000FF" transform="translate(0,0)"/>
<path d="" fill="#0000FF" transform="translate(0,0)"/>
<path d="" fill="#0000FF" transform="translate(0,0)"/>
<path d="" fill="#00FFFF" transform="translate(0,0)"/>
<path d="" fill="#0000FF" transform="translate(0,0)"/>
</svg>
